<svg width="51" height="51" viewBox="0 0 51 51" fill="none" xmlns="http://www.w3.org/2000/svg">
<path d="M12.75 40.25L12.75 35.25" stroke="#EDEBFF" stroke-width="3" stroke-linecap="round"/>
<path d="M25.25 40.25L25.25 32.75" stroke="#EDEBFF" stroke-width="3" stroke-linecap="round"/>
<path d="M37.75 40.25L37.75 27.75" stroke="#EDEBFF" stroke-width="3" stroke-linecap="round"/>
<path d="M10.25 22.5C9.42157 22.5 8.75 23.1716 8.75 24C8.75 24.8284 9.42157 25.5 10.25 25.5V24V22.5ZM36.5524 12.2442C36.9634 11.5249 36.7135 10.6087 35.9942 10.1976C35.2749 9.78662 34.3587 10.0365 33.9476 10.7558L35.25 11.5L36.5524 12.2442ZM30.0059 9.50694C29.1885 9.64177 28.6352 10.4137 28.77 11.2311C28.9048 12.0485 29.6767 12.6018 30.4941 12.4669L30.25 10.9869L30.0059 9.50694ZM33.4191 10.4642L33.175 8.98419L33.175 8.98419L33.4191 10.4642ZM36.9546 12.4738L35.5127 12.8869L36.9546 12.4738ZM36.308 15.6631C36.5362 16.4595 37.3667 16.9201 38.1631 16.692C38.9595 16.4638 39.4201 15.6333 39.192 14.8369L37.75 15.25L36.308 15.6631ZM35.9353 10.4289L36.6766 9.12479L36.6766 9.12479L35.9353 10.4289ZM10.25 24V25.5C21.8483 25.5 31.2028 21.6059 36.5524 12.2442L35.25 11.5L33.9476 10.7558C29.2972 18.8941 21.1517 22.5 10.25 22.5V24ZM30.25 10.9869L30.4941 12.4669L33.6632 11.9442L33.4191 10.4642L33.175 8.98419L30.0059 9.50694L30.25 10.9869ZM36.9546 12.4738L35.5127 12.8869L36.308 15.6631L37.75 15.25L39.192 14.8369L38.3966 12.0607L36.9546 12.4738ZM33.4191 10.4642L33.6632 11.9442C34.3656 11.8283 34.7626 11.7654 35.0511 11.7522C35.3044 11.7406 35.279 11.7812 35.1941 11.7329L35.9353 10.4289L36.6766 9.12479C36.0739 8.78223 35.4565 8.73056 34.9143 8.75531C34.4072 8.77845 33.805 8.88028 33.175 8.98419L33.4191 10.4642ZM36.9546 12.4738L38.3966 12.0607C38.2418 11.5201 38.0846 10.9581 37.8809 10.5069C37.6509 9.99731 37.2996 9.47892 36.6766 9.12479L35.9353 10.4289L35.1941 11.7329C35.0888 11.6731 35.08 11.5936 35.1466 11.7412C35.2395 11.9471 35.3332 12.2604 35.5127 12.8869L36.9546 12.4738Z" fill="#EDEBFF"/>
<path d="M1.5 25.25C1.5 14.0541 1.5 8.45621 4.97811 4.97811C8.45621 1.5 14.0541 1.5 25.25 1.5C36.4459 1.5 42.0438 1.5 45.5219 4.97811C49 8.45621 49 14.0541 49 25.25C49 36.4459 49 42.0438 45.5219 45.5219C42.0438 49 36.4459 49 25.25 49C14.0541 49 8.45621 49 4.97811 45.5219C1.5 42.0438 1.5 36.4459 1.5 25.25Z" stroke="#EDEBFF" stroke-width="3"/>
</svg>
