<svg width="53" height="53" viewBox="0 0 53 53" fill="none" xmlns="http://www.w3.org/2000/svg">
<path d="M22.8756 4C13.2446 4.01735 8.20125 4.25379 4.97821 7.47683C1.5 10.955 1.5 16.5531 1.5 27.7493C1.5 38.9455 1.5 44.5436 4.97821 48.0218C8.45642 51.5 14.0545 51.5 25.2507 51.5C36.4469 51.5 42.045 51.5 45.5232 48.0218C48.7462 44.7987 48.9827 39.7554 49 30.1244" stroke="#EDEBFF" stroke-width="3" stroke-linecap="round" stroke-linejoin="round"/>
<path d="M24.1389 29C22.3306 6.16588 38.5058 -0.311154 51.4513 1.91097C51.974 9.4784 48.2713 12.312 41.2198 13.6206C42.5814 15.0434 44.9875 16.8339 44.7279 19.072C44.5432 20.6646 43.4616 21.4461 41.2984 23.009C36.5577 26.434 31.0661 28.5939 24.1389 29Z" stroke="#EDEBFF" stroke-width="3" stroke-linecap="round" stroke-linejoin="round"/>
<path d="M19 39C24 25.25 28.9009 20.5909 34 16.5" stroke="#EDEBFF" stroke-width="3" stroke-linecap="round" stroke-linejoin="round"/>
</svg>
