<svg width="53" height="53" viewBox="0 0 53 53" fill="none" xmlns="http://www.w3.org/2000/svg">
<path d="M39 26.5C39 33.4036 33.4036 39 26.5 39C19.5964 39 14 33.4036 14 26.5C14 19.5964 19.5964 14 26.5 14" stroke="#EDEBFF" stroke-width="3" stroke-linecap="round"/>
<path d="M31.5 2.00009C29.8844 1.67215 28.2123 1.5 26.5 1.5C12.6929 1.5 1.5 12.6929 1.5 26.5C1.5 40.3071 12.6929 51.5 26.5 51.5C40.3071 51.5 51.5 40.3071 51.5 26.5C51.5 24.7877 51.3278 23.1155 50.9999 21.5" stroke="#EDEBFF" stroke-width="3" stroke-linecap="round"/>
<path d="M25.4393 25.4393C24.8536 26.0251 24.8536 26.9749 25.4393 27.5607C26.0251 28.1464 26.9749 28.1464 27.5607 27.5607L26.5 26.5L25.4393 25.4393ZM45.7272 7.27279L44.2758 7.65149C44.4129 8.17685 44.8232 8.58713 45.3485 8.7242L45.7272 7.27279ZM44.4363 2.32518L42.9849 2.70387L42.9849 2.70387L44.4363 2.32518ZM42.2451 1.97515L43.3058 3.03581L43.3058 3.03581L42.2451 1.97515ZM39.3716 4.84861L38.311 3.78795L38.311 3.78795L39.3716 4.84861ZM37.1953 11.8782L35.7439 12.2569L35.7439 12.2569L37.1953 11.8782ZM50.6748 8.56369L50.2961 10.0151L50.2961 10.0151L50.6748 8.56369ZM51.0249 10.7549L49.9642 9.69424L49.9642 9.69424L51.0249 10.7549ZM48.1514 13.6284L49.2121 14.689L49.2121 14.689L48.1514 13.6284ZM41.1218 15.8047L40.7431 17.2561L40.7431 17.2561L41.1218 15.8047ZM38.0078 14.9922L36.9472 13.9315L25.4393 25.4393L26.5 26.5L27.5607 27.5607L39.0685 16.0528L38.0078 14.9922ZM45.7272 7.27279L47.1786 6.8941L45.8877 1.94648L44.4363 2.32518L42.9849 2.70387L44.2758 7.65149L45.7272 7.27279ZM42.2451 1.97515L41.1844 0.914489L38.311 3.78795L39.3716 4.84861L40.4323 5.90927L43.3058 3.03581L42.2451 1.97515ZM37.1953 11.8782L35.7439 12.2569L36.5564 15.3709L38.0078 14.9922L39.4592 14.6135L38.6468 11.4995L37.1953 11.8782ZM45.7272 7.27279L45.3485 8.7242L50.2961 10.0151L50.6748 8.56369L51.0535 7.11228L46.1059 5.82138L45.7272 7.27279ZM51.0249 10.7549L49.9642 9.69424L47.0907 12.5677L48.1514 13.6284L49.2121 14.689L52.0855 11.8156L51.0249 10.7549ZM41.1218 15.8047L41.5005 14.3532L38.3865 13.5408L38.0078 14.9922L37.6291 16.4436L40.7431 17.2561L41.1218 15.8047ZM48.1514 13.6284L47.0907 12.5677C45.4589 14.1995 43.2683 14.8145 41.5005 14.3532L41.1218 15.8047L40.7431 17.2561C43.6931 18.0258 46.9454 16.9557 49.2121 14.689L48.1514 13.6284ZM50.6748 8.56369L50.2961 10.0151C50.24 10.0005 50.1603 9.95909 50.094 9.88258C50.0322 9.81124 50.0095 9.74153 50.0028 9.69959C49.9897 9.6176 50.0281 9.6303 49.9642 9.69424L51.0249 10.7549L52.0855 11.8156C52.7867 11.1144 53.1131 10.1523 52.9652 9.22636C52.8128 8.27197 52.1449 7.39704 51.0535 7.11228L50.6748 8.56369ZM39.3716 4.84861L38.311 3.78795C36.0443 6.05463 34.9742 9.30687 35.7439 12.2569L37.1953 11.8782L38.6468 11.4995C38.1855 9.73167 38.8005 7.54111 40.4323 5.90927L39.3716 4.84861ZM44.4363 2.32518L45.8877 1.94648C45.603 0.855106 44.728 0.187247 43.7736 0.034791C42.8477 -0.113116 41.8856 0.213307 41.1844 0.914489L42.2451 1.97515L43.3058 3.03581C43.3697 2.97186 43.3824 3.01033 43.3004 2.99723C43.2585 2.99053 43.1888 2.96778 43.1174 2.90597C43.0409 2.83969 42.9995 2.76003 42.9849 2.70387L44.4363 2.32518Z" fill="#EDEBFF"/>
</svg>
