<svg width="108" height="80" viewBox="0 0 108 80" fill="none" xmlns="http://www.w3.org/2000/svg">
<path d="M0 79.846C0.0422689 79.7403 0.0634021 79.5924 0.0845366 79.4233C0.105671 79.2542 0.147939 79.0429 0.169073 78.7893C0.190208 78.5357 0.211345 78.2398 0.211345 77.9016C0.232479 77.5635 0.23248 77.1619 0.23248 76.697V71.4134C0.23248 70.9484 0.232479 70.5468 0.211345 70.2087C0.19021 69.8705 0.190208 69.5747 0.169073 69.321C0.147939 69.0674 0.126806 68.8561 0.0845366 68.687C0.0634021 68.5179 0.0211345 68.37 0 68.2643V68.222H1.94437V68.2643C1.9021 68.37 1.88096 68.5179 1.85983 68.687C1.8387 68.8561 1.79643 69.0674 1.79643 69.321C1.79643 69.5747 1.75416 69.8705 1.75416 70.2087C1.73302 70.5468 1.73303 70.9484 1.73303 71.4134V73.2309L6.46715 69.3633C6.99551 68.9406 7.27026 68.5602 7.27026 68.2432H9.55278V68.2854C9.23576 68.37 8.91875 68.4968 8.5806 68.7293C8.24244 68.9406 7.90429 69.1942 7.54501 69.5113L3.36038 73.0196L8.41152 78.5568C8.62286 78.7682 8.81307 78.9584 8.96101 79.1063C9.10895 79.2542 9.23576 79.3599 9.36257 79.4656C9.46824 79.5501 9.57391 79.6347 9.67958 79.6981C9.76412 79.7615 9.8698 79.8249 9.97547 79.8883V79.9305H7.58727C7.56614 79.8883 7.52387 79.8249 7.4816 79.7403C7.43933 79.6558 7.37593 79.5924 7.31253 79.5079C7.24912 79.4233 7.16459 79.3388 7.10118 79.2542C7.01664 79.1697 6.95324 79.0852 6.8687 79.0006L1.77529 73.4211V76.7604C1.77529 77.2253 1.7753 77.6269 1.79643 77.965C1.81756 78.3032 1.81757 78.5991 1.8387 78.8527C1.85984 79.1063 1.88097 79.3176 1.9021 79.4867C1.92324 79.6558 1.9655 79.8037 1.98664 79.9094V79.9517H0.0422715V79.846H0Z" fill="white"/>
<path d="M24.6428 79.8249C24.664 79.8037 24.664 79.7615 24.664 79.6981C24.664 79.6347 24.664 79.5924 24.664 79.5501C24.664 79.3811 24.6428 79.1908 24.6006 79.0006C24.5583 78.7893 24.4738 78.5357 24.347 78.2398L23.3536 76.0207C23.0578 75.9995 22.6562 75.9995 22.149 75.9995C21.6417 75.9995 21.0923 75.9995 20.5216 75.9995C20.0989 75.9995 19.6762 75.9995 19.2747 75.9995C18.8731 75.9995 18.5139 75.9995 18.1968 76.0207L17.2669 78.1552C17.1824 78.3455 17.0978 78.5779 17.0133 78.8104C16.9288 79.0429 16.8654 79.2965 16.8654 79.529C16.8654 79.5924 16.8654 79.6558 16.8865 79.6981C16.9076 79.7403 16.9076 79.7826 16.9288 79.7826V79.8249H15.2803V79.7826C15.3859 79.6769 15.4916 79.4867 15.6396 79.2331C15.7875 78.9795 15.9354 78.6413 16.1257 78.2398L20.7752 67.905H21.4304L25.8475 77.8382C25.9532 78.0707 26.0589 78.3032 26.1645 78.5145C26.2702 78.7259 26.3759 78.9372 26.4815 79.1063C26.5872 79.2754 26.6718 79.4233 26.7352 79.5501C26.8197 79.6769 26.862 79.7403 26.8831 79.7826V79.8249H24.6428ZM19.3804 75.3232C19.6974 75.3232 20.0144 75.3232 20.3525 75.3232C20.6907 75.3232 21.0077 75.3232 21.3247 75.3232C21.6417 75.3232 21.9376 75.3232 22.2335 75.3232C22.5294 75.3232 22.783 75.3232 23.0366 75.3021L20.7541 70.1453L18.4927 75.3232H19.3804Z" fill="white"/>
<path d="M35.9076 68.9407C35.2735 68.9407 34.6818 68.9618 34.1745 69.0252C33.6673 69.0886 33.2235 69.152 32.8431 69.2154C32.3992 69.2999 32.0188 69.3845 31.6807 69.4901L31.9131 68.1798C31.9765 68.1798 32.0822 68.201 32.209 68.201C32.3358 68.201 32.4838 68.2221 32.6529 68.2221C32.8219 68.2221 32.991 68.2221 33.1601 68.2432C33.3292 68.2432 33.4982 68.2432 33.6673 68.2432C33.8152 68.2432 33.9632 68.2432 34.09 68.2432C34.2168 68.2432 34.3013 68.2432 34.3436 68.2432H38.9721C39.0355 68.2432 39.12 68.2432 39.2257 68.2432C39.3525 68.2432 39.4793 68.2432 39.6484 68.2432C39.7963 68.2432 39.9654 68.2432 40.1556 68.2432C40.3247 68.2432 40.4937 68.2432 40.6628 68.2221C40.8319 68.2009 40.9587 68.201 41.1066 68.201C41.2334 68.201 41.3391 68.1798 41.4025 68.1798L41.635 69.4901C41.2968 69.3845 40.8953 69.2999 40.4726 69.2154C40.0922 69.152 39.6484 69.0886 39.1411 69.0252C38.6339 68.9618 38.0421 68.9407 37.4081 68.9407V76.697C37.4081 77.162 37.4081 77.5635 37.4292 77.9017C37.4504 78.2398 37.4504 78.5357 37.4715 78.7893C37.4926 79.0429 37.5138 79.2543 37.5349 79.4233C37.556 79.5924 37.5983 79.7404 37.6195 79.846V79.8883H35.6751V79.846C35.7173 79.7404 35.7385 79.5924 35.7596 79.4233C35.7808 79.2543 35.8019 79.0429 35.823 78.7893C35.8442 78.5357 35.8653 78.2398 35.8653 77.9017C35.8864 77.5635 35.8864 77.162 35.8864 76.697V68.9407H35.9076Z" fill="white"/>
<path d="M56.6616 74.2877C56.4503 74.2877 56.1755 74.2877 55.8585 74.2666C55.5415 74.2666 55.1822 74.2666 54.8018 74.2454C54.4214 74.2454 54.0198 74.2454 53.5971 74.2243C53.1744 74.2243 52.7729 74.2243 52.3925 74.2243C51.9909 74.2243 51.6105 74.2243 51.2723 74.2243C50.9342 74.2243 50.596 74.2454 50.3424 74.2454V76.6548C50.3424 77.1197 50.3424 77.5213 50.3635 77.8594C50.3847 78.1976 50.3847 78.4934 50.4058 78.7471C50.4269 79.0007 50.4481 79.212 50.4692 79.3811C50.4903 79.5502 50.5326 79.6981 50.5537 79.8038V79.8461H48.6094V79.8038C48.6516 79.6981 48.6728 79.5502 48.6939 79.3811C48.7151 79.212 48.7573 79.0007 48.7784 78.7471C48.7996 78.4934 48.8207 78.1976 48.8207 77.8594C48.8419 77.5213 48.8418 77.1197 48.8418 76.6548V71.3711C48.8418 70.9062 48.8419 70.5046 48.8207 70.1665C48.7996 69.8283 48.7996 69.5324 48.7784 69.2788C48.7573 69.0252 48.7362 68.8139 48.6939 68.6448C48.6728 68.4757 48.6305 68.3278 48.6094 68.2221V68.1798H50.5537V68.2221C50.5115 68.3278 50.4903 68.4757 50.4692 68.6448C50.4481 68.8139 50.4058 69.0252 50.4058 69.2788C50.4058 69.5324 50.3635 69.8283 50.3635 70.1665C50.3424 70.5046 50.3424 70.9062 50.3424 71.3711V73.4423C50.6172 73.4634 50.9342 73.4634 51.2935 73.4634C51.6527 73.4634 52.0332 73.4634 52.4136 73.4634C52.794 73.4634 53.1955 73.4634 53.5971 73.4423C53.9987 73.4423 54.4002 73.4212 54.7595 73.4212C55.1399 73.4212 55.4781 73.4 55.8162 73.4C56.1332 73.3789 56.4291 73.3789 56.6616 73.3578V71.35C56.6616 70.885 56.6616 70.4835 56.6405 70.1453C56.6193 69.8072 56.6193 69.5113 56.5982 69.2577C56.5771 69.0041 56.5559 68.7927 56.5348 68.6237C56.5137 68.4546 56.4714 68.3066 56.4503 68.201V68.1587H58.3946V68.201C58.3524 68.3066 58.3312 68.4546 58.3101 68.6237C58.289 68.7927 58.2467 69.0041 58.2256 69.2577C58.2044 69.5113 58.1833 69.8072 58.1833 70.1453C58.1833 70.4835 58.1622 70.885 58.1622 71.35V76.6336C58.1622 77.0986 58.1622 77.5001 58.1833 77.8383C58.2044 78.1764 58.2044 78.4723 58.2256 78.7259C58.2467 78.9795 58.2678 79.1909 58.3101 79.36C58.3524 79.529 58.3735 79.677 58.3946 79.7826V79.8249H56.4503V79.7826C56.4925 79.677 56.5137 79.529 56.5348 79.36C56.5559 79.1909 56.5982 78.9795 56.5982 78.7259C56.5982 78.4723 56.6405 78.1764 56.6405 77.8383C56.6616 77.5001 56.6616 77.0986 56.6616 76.6336V74.2877Z" fill="white"/>
<path d="M74.5834 79.8249C74.6046 79.8037 74.6045 79.7615 74.6045 79.6981C74.6045 79.6347 74.6045 79.5924 74.6045 79.5501C74.6045 79.3811 74.5834 79.1908 74.5411 79.0006C74.4989 78.7893 74.4143 78.5357 74.2875 78.2398L73.2942 76.0207C72.9983 75.9995 72.5968 75.9995 72.0895 75.9995C71.5823 75.9995 71.0328 75.9995 70.4622 75.9995C70.0395 75.9995 69.6168 75.9995 69.2153 75.9995C68.8137 75.9995 68.4544 75.9995 68.1374 76.0207L67.2075 78.1552C67.1229 78.3455 67.0384 78.5779 66.9539 78.8104C66.8693 79.0429 66.8059 79.2965 66.8059 79.529C66.8059 79.5924 66.8059 79.6558 66.8271 79.6981C66.8482 79.7403 66.8482 79.7826 66.8693 79.7826V79.8249H65.1997V79.7826C65.3054 79.6769 65.4111 79.4867 65.559 79.2331C65.7069 78.9795 65.8549 78.6413 66.0451 78.2398L70.6947 67.905H71.3498L75.7669 77.8382C75.8726 78.0707 75.9783 78.3032 76.084 78.5145C76.1896 78.7259 76.2953 78.9372 76.401 79.1063C76.5066 79.2754 76.5912 79.4233 76.6546 79.5501C76.7391 79.6769 76.7814 79.7403 76.8025 79.7826V79.8249H74.5834ZM69.3209 75.3232C69.6379 75.3232 69.955 75.3232 70.2931 75.3232C70.6313 75.3232 70.9483 75.3232 71.2653 75.3232C71.5823 75.3232 71.8782 75.3232 72.1741 75.3232C72.47 75.3232 72.7236 75.3232 72.9772 75.3021L70.6947 70.1453L68.4544 75.3444H69.3209V75.3232Z" fill="white"/>
<path d="M101.868 68.9407C101.234 68.9407 100.642 68.9618 100.135 69.0252C99.6278 69.0886 99.1839 69.152 98.8035 69.2154C98.3597 69.2999 97.9793 69.3845 97.6411 69.4901L97.8736 68.1798C97.937 68.1798 98.0427 68.201 98.1695 68.201C98.2963 68.201 98.4442 68.2221 98.6133 68.2221C98.7824 68.2221 98.9515 68.2221 99.1205 68.2432C99.2896 68.2432 99.4587 68.2432 99.6278 68.2432C99.7757 68.2432 99.9236 68.2432 100.05 68.2432C100.177 68.2432 100.262 68.2432 100.304 68.2432H104.933C104.996 68.2432 105.08 68.2432 105.186 68.2432C105.313 68.2432 105.44 68.2432 105.609 68.2432C105.757 68.2432 105.926 68.2432 106.116 68.2432C106.285 68.2432 106.454 68.2432 106.623 68.2221C106.792 68.2009 106.919 68.201 107.067 68.201C107.194 68.201 107.3 68.1798 107.363 68.1798L107.595 69.4901C107.257 69.3845 106.856 69.2999 106.433 69.2154C106.053 69.152 105.609 69.0886 105.102 69.0252C104.594 68.9618 104.003 68.9407 103.369 68.9407V76.697C103.369 77.162 103.369 77.5635 103.39 77.9017C103.411 78.2398 103.411 78.5357 103.432 78.7893C103.453 79.0429 103.474 79.2543 103.495 79.4233C103.516 79.5924 103.559 79.7404 103.58 79.846V79.8883H101.636V79.846C101.678 79.7404 101.699 79.5924 101.72 79.4233C101.741 79.2543 101.762 79.0429 101.783 78.7893C101.805 78.5357 101.826 78.2398 101.826 77.9017C101.847 77.5635 101.847 77.162 101.847 76.697V68.9407H101.868Z" fill="white"/>
<path d="M85.9326 74.6894C85.9326 74.6894 86.6089 74.7528 87.095 75.4925C87.5811 76.2322 89.3775 78.6204 89.3775 78.6204C89.3775 78.6204 90.244 80.2266 92.907 79.973V79.8251C92.907 79.8251 91.8291 79.973 90.8147 78.6627C89.8002 77.3523 88.3631 75.1966 87.6868 74.9219C87.6868 74.9219 86.9682 74.5203 85.9326 74.5626V74.6894Z" fill="white"/>
<path d="M90.3077 69.9551C90.1175 69.5536 89.8639 69.2366 89.5469 68.9618C89.2299 68.6871 88.8283 68.4969 88.4056 68.3489C87.9618 68.201 87.4757 68.1376 86.9685 68.1376C86.419 68.1376 85.9541 68.1587 85.5948 68.2221C85.2355 68.2644 84.9396 68.3066 84.7283 68.3066C84.6014 68.3066 84.4535 68.3066 84.3267 68.3066C84.1999 68.3066 84.0942 68.3066 83.9885 68.2855L83.6504 68.2432V68.2855C83.6715 68.3912 83.7138 68.5391 83.7349 68.7082C83.7561 68.8773 83.7772 69.0886 83.7983 69.3422C83.8195 69.5958 83.8406 69.8917 83.8406 70.2299C83.8617 70.568 83.8617 70.9696 83.8617 71.4345V76.7182C83.8617 77.1831 83.8617 77.5847 83.8406 77.9228C83.8195 78.261 83.8195 78.5569 83.7983 78.8105C83.7772 79.0641 83.7561 79.2754 83.7349 79.4445C83.7138 79.6136 83.6715 79.7615 83.6504 79.8672V79.9095H85.5948V79.8672C85.5736 79.7615 85.5314 79.6136 85.5102 79.4445C85.4891 79.2754 85.4468 79.0641 85.4257 78.8105C85.4046 78.5569 85.3834 78.261 85.3834 77.9228C85.3623 77.5847 85.3623 77.1831 85.3623 76.7182V74.9006C85.5102 74.9217 85.6793 74.9429 85.8272 74.964C85.9752 74.9851 86.1231 74.9851 86.2922 74.9851C86.419 74.9851 86.5458 74.9851 86.6726 74.964C86.7994 74.964 86.9262 74.9429 87.053 74.9429C87.053 74.9429 87.8562 74.8583 88.5113 74.5624C88.8283 74.4145 89.1031 74.2454 89.3567 74.0341C89.6103 73.8227 89.8217 73.5903 90.0119 73.3155C90.2021 73.0408 90.3289 72.7449 90.4346 72.4067C90.5402 72.0686 90.5825 71.7093 90.5825 71.3289C90.5825 70.7794 90.4768 70.3356 90.3077 69.9551ZM88.7649 72.6603C88.6381 73.0408 88.4479 73.3366 88.2154 73.5903C87.983 73.8439 87.6871 74.0341 87.3489 74.1398C87.0108 74.2666 86.6515 74.33 86.2288 74.33C86.0809 74.33 85.9329 74.33 85.785 74.3088C85.637 74.2877 85.4891 74.2666 85.3411 74.2454V68.8773C85.4468 68.835 85.6159 68.7927 85.8484 68.7505C86.0597 68.7082 86.3767 68.6871 86.736 68.6871C87.0953 68.6871 87.4335 68.7505 87.7082 68.8773C87.983 69.0041 88.2154 69.1732 88.3845 69.4056C88.5747 69.6381 88.7015 69.9129 88.7861 70.251C88.8706 70.5892 88.934 70.9484 88.934 71.35C88.9551 71.8361 88.8917 72.2799 88.7649 72.6603Z" fill="white"/>
<path d="M38.8237 43.4946C46.728 56.8939 63.7201 62.2409 78.0282 55.4145C78.1338 55.3722 78.2395 55.3088 78.3452 55.2665C77.2673 52.5402 73.6956 47.1298 68.729 44.023C57.1684 48.6726 50.7013 50.6169 38.8237 43.4946Z" fill="url(#paint0_linear_48_271)"/>
<path d="M66.7002 31.4481C58.183 39.8808 53.301 40.5148 39.0775 43.537C38.9929 43.5582 38.9084 43.5159 38.8027 43.4948C49.2432 51.2088 62.9172 52.0965 74.055 46.5592C77.8592 44.6571 81.3676 42.0153 84.3686 38.6338C84.4532 38.5282 84.5377 38.4436 84.6223 38.3379C82.4454 36.7317 80.1206 35.4214 77.7113 34.4069C75.9571 33.6461 70.2297 31.3213 66.7002 31.4481Z" fill="url(#paint1_linear_48_271)"/>
<path d="M67.3344 30.9619C58.8172 39.3946 50.8284 40.6204 39.0776 43.5581C50.9763 48.5035 64.3967 46.1787 73.8861 38.211C75.2598 37.0698 76.549 35.8017 77.7326 34.4068C75.9573 33.646 69.1943 31.3846 67.3344 30.9619Z" fill="url(#paint2_linear_48_271)"/>
<path d="M84.0093 39.0564C76.0627 49.1164 61.6279 53.1108 49.4755 49.1798C45.4177 47.9329 41.6347 45.8828 38.4434 43.1776C45.46 47.5736 53.7236 49.8138 61.966 49.0741C70.2296 48.3767 77.986 44.7416 84.0093 39.0564Z" fill="#6D29A3"/>
<path d="M78.0286 55.4146C67.8206 60.7193 54.6538 59.0285 45.8196 51.7372C42.8608 49.349 40.3247 46.4113 38.6128 43.072C40.853 46.0943 43.516 48.6938 46.5171 50.8284C55.5626 57.4012 67.4402 58.9863 78.0286 55.4146Z" fill="#6D29A3"/>
<path d="M38.7815 43.4313C27.5169 32.695 26.1431 14.942 36.0552 2.55722C36.1186 2.47268 36.2031 2.36701 36.2877 2.28247C38.697 3.95209 43.1564 8.66508 45.0585 14.2023C37.915 24.3891 34.5547 30.2434 38.7815 43.4313Z" fill="url(#paint3_linear_48_271)"/>
<path d="M56.8516 18.9999C46.7071 25.3825 44.9741 29.9898 38.8239 43.1777C38.7817 43.2623 38.8028 43.3468 38.8028 43.4525C33.6671 31.5326 35.8862 18.0277 43.8117 8.43265C46.5169 5.15681 49.8984 2.32479 53.8717 0.190209C53.9773 0.126806 54.1041 0.0634034 54.231 0C55.3088 2.49387 56.0485 5.03 56.4923 7.60841C56.7882 9.51051 57.7604 15.6184 56.8516 18.9999Z" fill="url(#paint4_linear_48_271)"/>
<path d="M57.4646 18.5137C47.32 24.8963 44.3189 32.399 38.8028 43.1776C36.6683 30.4547 41.9942 17.9219 51.8851 10.4826C53.3222 9.40472 54.8439 8.43254 56.4501 7.58716C56.7883 9.51039 57.4646 16.5904 57.4646 18.5137Z" fill="url(#paint5_linear_48_271)"/>
<path d="M53.3644 0.422607C46.4534 5.00879 41.1486 11.7507 38.6125 19.6338C36.013 27.4959 36.33 36.0342 39.0141 43.8751C37.112 40.1554 35.9496 35.9919 35.6537 31.765C34.597 19.0421 41.7615 5.8753 53.3644 0.422607Z" fill="#6D29A3"/>
<path d="M36.0556 2.55737C30.1802 12.0679 29.039 23.9877 33.4138 34.3013C34.8298 37.704 36.753 40.8953 39.1835 43.7485C36.3092 41.318 34.0267 38.1901 32.3782 34.7663C27.2425 24.5161 28.574 11.307 36.0556 2.55737Z" fill="#6D29A3"/>
<path d="M81.1562 11.3703C79.8881 18.6195 76.6334 25.1078 72.0473 30.328C64.1218 39.3524 52.1386 44.6149 39.2466 43.4947C39.0986 43.4736 38.9507 43.4736 38.8027 43.4525C41.0219 30.9409 49.0741 20.6695 59.8738 15.2802C66.1085 12.1735 73.2731 10.6729 80.7124 11.3281C80.8392 11.3492 81.0083 11.3492 81.1562 11.3703Z" fill="url(#paint6_linear_48_271)"/>
<path d="M71.815 26.0799C71.815 26.0799 66.003 23.4381 60.4869 25.8052C60.7194 25.3402 61.1632 24.9598 61.8184 24.685C61.6071 24.4525 56.4502 24.8541 54.527 26.4181C53.8084 27.0098 53.2589 27.8129 52.8785 28.8485C52.8785 28.8485 52.8574 27.7073 53.2801 26.566C53.2801 26.566 49.497 27.8552 46.982 30.6449C45.0165 32.8218 45.1433 34.0687 45.1433 34.0687C45.1433 34.0687 44.6995 32.9697 45.2912 31.3635C45.2912 31.3635 41.8041 34.1744 39.3947 41.8039C39.0143 43.0297 39.0566 43.3679 39.0566 43.3679C41.6138 42.8395 42.2902 43.0509 44.7418 42.5859C47.0454 42.1632 48.6305 41.6137 50.8496 39.1833C50.8496 39.1833 48.9052 39.0142 48.0176 38.3168C48.0176 38.3168 55.3724 38.0209 57.3379 33.8151C57.3379 33.8151 55.2456 34.0476 54.4425 33.329C54.4425 33.329 59.5993 33.0754 61.4803 31.4481C60.8674 31.3001 60.4024 31.0465 60.191 30.6027C61.29 30.4547 62.7272 30.0532 63.6782 29.2289L62.2411 28.4681C62.2834 28.4681 67.0597 25.5304 71.815 26.0799Z" fill="#0D0D0D"/>
<path d="M39.0142 42.6071C41.6982 27.4114 53.3645 14.8576 68.4967 11.4338C72.935 10.4193 77.5 10.1869 82.0228 10.7152L81.8749 11.4972C80.6068 18.6195 77.3521 25.3614 72.5123 30.7507L72.3009 31.0043L71.9839 30.9832L72.5334 30.7718C70.5045 33.0544 68.1797 35.0833 65.6436 36.7952C58.1197 41.9731 48.7783 44.2979 39.7116 43.4948C42.7127 43.5582 45.7349 43.3257 48.6726 42.7762C57.4645 41.1911 65.707 36.6684 71.5401 29.9053L71.7514 29.6728L72.0896 29.694L71.5401 29.9053C76.1052 24.6217 79.2119 18.1123 80.4166 11.2436L81.0506 12.1101C78.7258 11.8776 76.3588 11.8565 74.0128 12.0467C56.9151 13.357 43.0297 26.0588 39.0142 42.6071Z" fill="#CD90F4"/>
<path d="M59.134 28.2569C58.6902 28.2569 58.2675 28.4471 57.866 28.5528C56.619 28.9755 55.4144 29.525 54.252 30.1379C46.5379 34.3437 41.4656 40.5361 37.1542 48.0599C35.4423 51.0822 30.6025 54.0621 32.8216 54.9286L29.8628 57.3591C35.0196 46.179 42.7971 35.3792 54.1252 29.8631C55.3298 29.2925 56.5556 28.8064 57.8448 28.4471C58.2464 28.3837 58.6902 28.2358 59.134 28.2569Z" fill="url(#paint7_linear_48_271)"/>
<defs>
<linearGradient id="paint0_linear_48_271" x1="82.3736" y1="55.0228" x2="39.7309" y2="45.6202" gradientUnits="userSpaceOnUse">
<stop stop-color="#E097F5"/>
<stop offset="1" stop-color="#7742DA"/>
</linearGradient>
<linearGradient id="paint1_linear_48_271" x1="82.5935" y1="39.8919" x2="41.643" y2="41.8352" gradientUnits="userSpaceOnUse">
<stop stop-color="#E097F5"/>
<stop offset="0.7775" stop-color="#874FDE"/>
<stop offset="1" stop-color="#513CD5"/>
</linearGradient>
<linearGradient id="paint2_linear_48_271" x1="93.885" y1="26.1766" x2="47.2554" y2="44.8838" gradientUnits="userSpaceOnUse">
<stop stop-color="#E097F5"/>
<stop offset="0.7775" stop-color="#874FDE"/>
<stop offset="1" stop-color="#513CD5"/>
</linearGradient>
<linearGradient id="paint3_linear_48_271" x1="37.4538" y1="-1.57935" x2="36.9576" y2="42.0863" gradientUnits="userSpaceOnUse">
<stop stop-color="#E097F5"/>
<stop offset="1" stop-color="#7742DA"/>
</linearGradient>
<linearGradient id="paint4_linear_48_271" x1="52.2422" y1="1.63251" x2="41.0776" y2="41.0811" gradientUnits="userSpaceOnUse">
<stop stop-color="#E097F5"/>
<stop offset="0.7775" stop-color="#874FDE"/>
<stop offset="1" stop-color="#513CD5"/>
</linearGradient>
<linearGradient id="paint5_linear_48_271" x1="68.1583" y1="-6.26074" x2="39.3787" y2="34.9239" gradientUnits="userSpaceOnUse">
<stop stop-color="#E097F5"/>
<stop offset="0.7775" stop-color="#874FDE"/>
<stop offset="1" stop-color="#513CD5"/>
</linearGradient>
<linearGradient id="paint6_linear_48_271" x1="82.4615" y1="8.80691" x2="38.0515" y2="45.5257" gradientUnits="userSpaceOnUse">
<stop stop-color="#E097F5"/>
<stop offset="0.5708" stop-color="#8850DE"/>
<stop offset="1" stop-color="#3F35D2"/>
</linearGradient>
<linearGradient id="paint7_linear_48_271" x1="29.8521" y1="42.8144" x2="59.1254" y2="42.8144" gradientUnits="userSpaceOnUse">
<stop stop-color="#E097F5"/>
<stop offset="1" stop-color="#7742DA"/>
</linearGradient>
</defs>
</svg>
