<svg width="275" height="290" viewBox="0 0 275 290" fill="none" xmlns="http://www.w3.org/2000/svg">
<path d="M47.2075 215.57C86.383 281.98 170.6 308.481 241.514 274.647C242.037 274.438 242.561 274.124 243.085 273.914C237.743 260.402 220.04 233.586 195.425 218.189C138.128 241.233 106.075 250.87 47.2075 215.57Z" fill="url(#paint0_linear_137_152)"/>
<path d="M185.369 155.864C143.156 197.658 118.96 200.8 48.4647 215.779C48.0457 215.884 47.6268 215.675 47.103 215.57C98.8482 253.803 166.62 258.202 221.821 230.758C240.676 221.331 258.064 208.237 272.938 191.478C273.357 190.954 273.776 190.535 274.195 190.011C263.406 182.051 251.884 175.556 239.943 170.528C231.249 166.758 202.862 155.235 185.369 155.864Z" fill="url(#paint1_linear_137_152)"/>
<path d="M188.511 153.455C146.298 195.249 106.704 201.324 48.4644 215.884C107.437 240.395 173.952 228.873 220.983 189.383C227.792 183.727 234.181 177.442 240.047 170.528C231.248 166.758 197.729 155.55 188.511 153.455Z" fill="url(#paint2_linear_137_152)"/>
<path d="M271.157 193.573C231.772 243.433 160.23 263.23 100 243.747C79.8888 237.567 61.1391 227.406 45.3223 213.999C80.0983 235.786 121.055 246.889 161.906 243.223C202.862 239.766 241.304 221.75 271.157 193.573Z" fill="#6D29A3"/>
<path d="M241.513 274.647C190.92 300.939 125.663 292.559 81.8784 256.421C67.2138 244.585 54.6442 230.025 46.1597 213.475C57.2629 228.454 70.461 241.338 85.3351 251.917C130.167 284.493 189.035 292.35 241.513 274.647Z" fill="#6D29A3"/>
<path d="M46.9982 215.256C-8.8321 162.044 -15.6407 74.0563 33.4858 12.6745C33.8 12.2555 34.219 11.7317 34.638 11.3127C46.5792 19.5878 68.6809 42.9464 78.1081 70.3902C42.7035 120.878 26.0487 149.893 46.9982 215.256Z" fill="url(#paint3_linear_137_152)"/>
<path d="M136.557 94.1677C86.2779 125.801 77.6886 148.636 47.2072 213.999C46.9977 214.418 47.1024 214.837 47.1024 215.36C21.6489 156.283 32.6473 89.3494 71.9275 41.7941C85.3352 25.5583 102.095 11.5222 121.787 0.942719C122.311 0.628477 122.939 0.314242 123.568 0C128.91 12.3602 132.576 24.9298 134.776 37.709C136.242 47.1362 141.061 77.4082 136.557 94.1677Z" fill="url(#paint4_linear_137_152)"/>
<path d="M139.594 91.7586C89.3158 123.392 74.4417 160.577 47.1027 213.999C36.5232 150.941 62.9195 88.8256 111.941 51.9546C119.064 46.6125 126.606 41.7941 134.567 37.6042C136.243 47.1362 139.594 82.2266 139.594 91.7586Z" fill="url(#paint5_linear_137_152)"/>
<path d="M119.273 2.09497C85.0211 24.8251 58.7296 58.2395 46.1599 97.3102C33.276 136.276 34.8472 178.594 48.1501 217.455C38.7229 199.02 32.9618 178.385 31.4953 157.435C26.258 94.3773 61.7673 29.1198 119.273 2.09497Z" fill="#6D29A3"/>
<path d="M33.4857 12.6744C4.36595 59.8107 -1.2904 118.888 20.3923 170.005C27.4103 186.869 36.9423 202.686 48.9883 216.827C34.7426 204.781 23.43 189.278 15.2597 172.309C-10.1939 121.507 -3.59484 56.0398 33.4857 12.6744Z" fill="#6D29A3"/>
<path d="M257.016 56.354C250.732 92.2823 234.601 124.44 211.87 150.312C172.59 195.039 113.199 221.121 49.3027 215.57C48.5695 215.465 47.8363 215.465 47.103 215.36C58.1015 153.35 98.0102 102.443 151.536 75.7323C182.436 60.3344 217.946 52.8974 254.817 56.1445C255.445 56.2493 256.283 56.2493 257.016 56.354Z" fill="url(#paint6_linear_137_152)"/>
<path d="M210.718 129.258C210.718 129.258 181.913 116.165 154.574 127.896C155.726 125.592 157.926 123.706 161.173 122.345C160.125 121.192 134.567 123.183 125.035 130.934C121.474 133.867 118.75 137.847 116.865 142.98C116.865 142.98 116.76 137.324 118.855 131.667C118.855 131.667 100.105 138.057 87.6402 151.883C77.8987 162.672 78.5272 168.852 78.5272 168.852C78.5272 168.852 76.3275 163.406 79.2604 155.445C79.2604 155.445 61.9771 169.376 50.0359 207.19C48.1505 213.265 48.36 214.941 48.36 214.941C61.0344 212.323 64.3863 213.37 76.537 211.066C87.9544 208.971 95.8104 206.247 106.809 194.201C106.809 194.201 97.1722 193.363 92.7728 189.907C92.7728 189.907 129.225 188.44 138.966 167.596C138.966 167.596 128.596 168.748 124.616 165.186C124.616 165.186 150.174 163.929 159.497 155.864C156.459 155.131 154.155 153.874 153.107 151.674C158.554 150.941 165.677 148.95 170.39 144.865L163.268 141.094C163.477 141.094 187.15 126.535 210.718 129.258Z" fill="white"/>
<path d="M48.1504 211.17C61.4533 135.857 119.274 73.6373 194.273 56.6683C216.27 51.6404 238.895 50.4882 261.311 53.1069L260.578 56.9825C254.293 92.2823 238.162 125.697 214.175 152.407L213.127 153.664L211.556 153.559L214.279 152.512C204.224 163.825 192.702 173.88 180.132 182.365C142.842 208.028 96.5436 219.55 51.607 215.57C66.4811 215.884 81.46 214.732 96.0198 212.008C139.595 204.152 180.446 181.736 209.356 148.217L210.404 147.065L212.08 147.17L209.356 148.217C231.982 122.031 247.38 89.7684 253.35 55.7255L256.493 60.0201C244.97 58.8679 233.239 58.7632 221.612 59.7059C136.871 66.2002 68.0524 129.153 48.1504 211.17Z" fill="#CD90F4"/>
<path d="M147.869 140.047C145.67 140.047 143.575 140.99 141.584 141.513C135.404 143.608 129.434 146.332 123.673 149.37C85.44 170.214 60.3007 200.905 38.9322 238.195C30.4477 253.174 6.46059 267.943 17.459 272.238L2.79443 284.284C28.3528 228.873 66.8997 175.347 123.044 148.008C129.015 145.18 135.09 142.77 141.48 140.99C143.47 140.675 145.67 139.942 147.869 140.047Z" fill="url(#paint7_linear_137_152)"/>
<defs>
<linearGradient id="paint0_linear_137_152" x1="263.051" y1="272.706" x2="51.7039" y2="226.104" gradientUnits="userSpaceOnUse">
<stop stop-color="#E097F5"/>
<stop offset="1" stop-color="#7742DA"/>
</linearGradient>
<linearGradient id="paint1_linear_137_152" x1="264.14" y1="197.713" x2="61.1798" y2="207.345" gradientUnits="userSpaceOnUse">
<stop stop-color="#E097F5"/>
<stop offset="0.7775" stop-color="#874FDE"/>
<stop offset="1" stop-color="#513CD5"/>
</linearGradient>
<linearGradient id="paint2_linear_137_152" x1="320.102" y1="129.738" x2="88.9953" y2="222.455" gradientUnits="userSpaceOnUse">
<stop stop-color="#E097F5"/>
<stop offset="0.7775" stop-color="#874FDE"/>
<stop offset="1" stop-color="#513CD5"/>
</linearGradient>
<linearGradient id="paint3_linear_137_152" x1="40.4176" y1="-7.8273" x2="37.9583" y2="208.59" gradientUnits="userSpaceOnUse">
<stop stop-color="#E097F5"/>
<stop offset="1" stop-color="#7742DA"/>
</linearGradient>
<linearGradient id="paint4_linear_137_152" x1="113.711" y1="8.09109" x2="58.3767" y2="203.607" gradientUnits="userSpaceOnUse">
<stop stop-color="#E097F5"/>
<stop offset="0.7775" stop-color="#874FDE"/>
<stop offset="1" stop-color="#513CD5"/>
</linearGradient>
<linearGradient id="paint5_linear_137_152" x1="192.595" y1="-31.0291" x2="49.9568" y2="173.091" gradientUnits="userSpaceOnUse">
<stop stop-color="#E097F5"/>
<stop offset="0.7775" stop-color="#874FDE"/>
<stop offset="1" stop-color="#513CD5"/>
</linearGradient>
<linearGradient id="paint6_linear_137_152" x1="263.486" y1="43.649" x2="43.3799" y2="225.636" gradientUnits="userSpaceOnUse">
<stop stop-color="#E097F5"/>
<stop offset="0.5708" stop-color="#8850DE"/>
<stop offset="1" stop-color="#3F35D2"/>
</linearGradient>
<linearGradient id="paint7_linear_137_152" x1="2.74154" y1="212.197" x2="147.827" y2="212.197" gradientUnits="userSpaceOnUse">
<stop stop-color="#E097F5"/>
<stop offset="1" stop-color="#7742DA"/>
</linearGradient>
</defs>
</svg>
