<svg width="223" height="48" viewBox="0 0 223 48" fill="none" xmlns="http://www.w3.org/2000/svg">
<path fill-rule="evenodd" clip-rule="evenodd" d="M25.6233 25.3098L21.9867 10.3367C21.8862 9.92703 21.7023 9.54254 21.4466 9.20718C21.1907 8.87183 20.8686 8.59283 20.5001 8.38762C20.1316 8.1824 19.7247 8.05537 19.305 8.01446C18.8852 7.97356 18.4615 8.01966 18.0603 8.14988L14.125 9.42918C13.7235 9.55884 13.353 9.76993 13.0368 10.0493C12.7206 10.3286 12.4654 10.6701 12.2871 11.0526C12.1089 11.435 12.0115 11.8501 12.001 12.2719C11.9904 12.6937 12.067 13.1131 12.2259 13.5039L18.0913 27.7556C18.3842 28.4725 18.9372 29.0522 19.6395 29.3785C20.3418 29.7048 21.1415 29.7536 21.8783 29.5152L23.5936 28.9574C24.3301 28.7182 24.9487 28.2091 25.3252 27.5325C25.7017 26.8558 25.8082 26.0618 25.6233 25.3098ZM26.1699 39.7962C25.3793 40.0518 24.5306 40.0674 23.731 39.841C22.9314 39.6146 22.2169 39.1565 21.6775 38.5243C21.1382 37.8922 20.7981 37.1145 20.7004 36.2893C20.6026 35.4641 20.7516 34.6284 21.1283 33.8878C21.5051 33.1471 22.093 32.5347 22.8175 32.1278C23.542 31.721 24.3709 31.5379 25.1994 31.6018C26.0279 31.6655 26.819 31.9734 27.4727 32.4864C28.1264 32.9994 28.6135 33.6946 28.8724 34.4842C29.045 35.0103 29.1119 35.5654 29.0694 36.1175C29.027 36.6697 28.8758 37.208 28.6246 37.7015C28.3736 38.1951 28.0274 38.6342 27.6062 38.9937C27.185 39.3531 26.6969 39.6258 26.1699 39.7962ZM34.906 35.9516C40.3021 34.1986 44.6579 27.977 42.4911 21.3059C40.322 14.6394 33.1419 12.1627 27.7458 13.9156C27.1401 14.112 26.6312 14.5305 26.3215 15.0869C26.0119 15.6434 25.9246 16.2964 26.077 16.9147L26.6214 19.1568C26.7046 19.4934 26.8562 19.8093 27.0666 20.0847C27.2772 20.3602 27.5422 20.5894 27.8451 20.758C28.1481 20.9266 28.4825 21.031 28.8275 21.0647C29.1726 21.0985 29.5209 21.0608 29.8507 20.954L30.0721 20.8832C30.606 20.6934 31.1725 20.6126 31.7382 20.6454C32.3038 20.6783 32.8572 20.8242 33.3656 21.0745C33.8739 21.3248 34.327 21.6744 34.6979 22.1027C35.0689 22.531 35.3503 23.0294 35.5254 23.5682C35.7006 24.1071 35.7659 24.6757 35.7177 25.2402C35.6694 25.8048 35.5085 26.354 35.2444 26.8554C34.9803 27.3567 34.6185 27.8 34.1802 28.1592C33.7419 28.5183 33.2361 28.786 32.6926 28.9464L32.4713 29.0172C32.1421 29.1249 31.8386 29.2993 31.5797 29.5295C31.3209 29.7598 31.1122 30.0409 30.9669 30.3553C30.8215 30.6697 30.7425 31.0107 30.7347 31.357C30.727 31.7034 30.7908 32.0476 30.922 32.3682L31.7918 34.5063C32.0323 35.096 32.4871 35.5729 33.0649 35.841C33.6426 36.1091 34.3003 36.1486 34.906 35.9516Z" fill="#A9A7C4"/>
<path fill-rule="evenodd" clip-rule="evenodd" d="M59.2506 18.8135C62.1191 17.2775 65.6538 17.5586 68.0486 19.9512C70.346 22.253 70.3925 25.562 70.3925 26.8634C70.3925 30.5486 68.6904 33.6539 65.4501 34.6101C61.1363 35.9314 54.5295 34.7651 54.5295 34.7651C54.383 34.7487 54.2475 34.679 54.1491 34.5691C54.0508 34.4594 53.9963 34.3171 53.9961 34.1697V13.807C53.9961 13.6784 54.0471 13.5551 54.1381 13.4642C54.229 13.3733 54.3523 13.3223 54.4808 13.3223H58.5268C58.6554 13.3223 58.7787 13.3733 58.8695 13.4642C58.9605 13.5551 59.0115 13.6784 59.0115 13.807V18.6763C59.0117 18.7042 59.0191 18.7316 59.0331 18.7557C59.0472 18.7798 59.0674 18.7998 59.0915 18.8138C59.1158 18.8276 59.1431 18.835 59.1711 18.8349C59.199 18.8349 59.2264 18.8275 59.2506 18.8135ZM59.2085 30.4845C60.4524 30.8342 62.9358 30.967 64.3567 29.4906V29.4951C65.3306 28.5478 66.4705 25.4846 64.1819 23.1959C63.2169 22.2088 61.6366 21.6754 59.4409 22.5917C59.3109 22.6538 59.2014 22.7518 59.1253 22.8742C59.0492 22.9966 59.0097 23.1382 59.0115 23.2822V30.2056C59.0095 30.2671 59.0278 30.3277 59.0633 30.378C59.0988 30.4283 59.1499 30.4657 59.2085 30.4845ZM129.311 13.8203V34.8824C129.312 34.9679 129.346 35.0498 129.406 35.1103C129.467 35.1707 129.549 35.205 129.634 35.2055H134.033C134.118 35.2055 134.201 35.1715 134.262 35.111C134.322 35.0505 134.357 34.9683 134.358 34.8824V13.8203C134.358 13.6917 134.306 13.5684 134.216 13.4775C134.125 13.3866 134.002 13.3356 133.873 13.3356H129.792C129.664 13.3367 129.542 13.3883 129.452 13.4791C129.362 13.5699 129.311 13.6925 129.311 13.8203ZM90.0159 31.4805C89.7687 31.4458 89.5341 31.349 89.3343 31.1994C89.1129 31.0046 88.9955 30.6615 88.9712 30.1038V18.4506C88.9706 18.3386 88.9259 18.2314 88.8467 18.1523C88.7676 18.0731 88.6604 18.0284 88.5485 18.0278H84.4007C84.2886 18.0278 84.1811 18.0724 84.1018 18.1517C84.0225 18.231 83.9779 18.3385 83.9779 18.4506V29.2605C83.9801 29.2766 83.9801 29.293 83.9779 29.3092C83.5795 30.7169 81.9284 31.1418 80.6336 30.9227C78.7943 30.6129 78.0263 29.0679 78.0927 27.2884C78.0927 27.2265 78.1171 19.0526 78.1215 18.4506C78.1215 18.3385 78.0769 18.231 77.9976 18.1517C77.9183 18.0724 77.8108 18.0278 77.6987 18.0278H73.5598C73.4487 18.0278 73.342 18.0718 73.2632 18.1502C73.1844 18.2286 73.1399 18.335 73.1392 18.4462C73.1392 20.2168 73.1259 28.7293 73.1259 28.7293C73.1259 30.0573 73.5421 34.36 77.8669 35.148C79.901 35.5176 82.3202 34.8646 84.2745 33.4747C84.2925 33.4613 84.3131 33.4516 84.3348 33.4463C84.3567 33.441 84.3793 33.4402 84.4015 33.4439C84.4236 33.4477 84.4447 33.4558 84.4636 33.468C84.4826 33.4801 84.4987 33.4959 84.5114 33.5146C84.9822 34.1639 85.652 34.6418 86.4192 34.8758C87.5606 35.251 89.111 35.0997 89.5793 35.0539L89.591 35.0528C89.6645 35.0447 89.7331 35.0118 89.7854 34.9594C89.8377 34.9072 89.8706 34.8386 89.8787 34.7651L90.2749 31.8523C90.2897 31.7687 90.2708 31.6826 90.2223 31.6129C90.1737 31.5432 90.0995 31.4956 90.0159 31.4805ZM172.996 25.1215C172.848 23.2247 172.261 21.246 171.057 19.8095L171.025 19.7707L170.994 19.7338C170.498 19.137 169.174 17.5414 165.094 17.5542C163.423 17.5542 161.75 17.667 160.086 17.8264C159.134 17.9127 158.182 18.0101 157.233 18.1097C156.618 18.1743 156.619 18.5474 156.622 19.0493C156.622 19.0802 156.622 19.1115 156.622 19.1434V39.2449C156.61 39.3426 156.617 39.4418 156.642 39.5368C156.669 39.6318 156.714 39.7206 156.774 39.7982C156.925 39.9065 157.11 39.9539 157.294 39.931H160.938C161.027 39.9563 161.122 39.9578 161.212 39.9353C161.302 39.9127 161.386 39.867 161.452 39.8026C161.519 39.7381 161.569 39.6572 161.594 39.5679C161.621 39.4786 161.623 39.384 161.602 39.2935C161.61 38.1259 161.608 36.9739 161.605 35.8181C161.603 35.2387 161.602 34.6583 161.602 34.0745C161.602 34.0435 161.61 34.0131 161.626 33.9867C161.642 33.9604 161.666 33.9393 161.694 33.926C161.722 33.9127 161.753 33.9078 161.784 33.9117C161.814 33.9157 161.844 33.9284 161.867 33.9483C163.319 35.2122 165.49 35.5618 167.354 35.0218C169.329 34.4552 170.966 32.9413 171.907 31.1109C172.848 29.2804 173.153 27.1755 172.996 25.1215ZM167.906 27.543C167.489 29.1698 166.743 30.4203 164.503 30.5553C163.383 30.6195 161.604 29.9865 161.604 28.944V22.709C161.604 22.47 161.63 22.2951 161.863 22.1911C162.343 21.9698 163.634 21.7905 164.623 21.8214C168.882 21.9432 168.122 26.7395 167.916 27.543H167.906ZM103.046 26.0114C102.691 26.5138 102.691 26.6842 103.023 27.1534L108.894 34.7031C108.928 34.7515 108.949 34.8087 108.953 34.8682C108.957 34.9276 108.944 34.987 108.915 35.0395C108.889 35.093 108.848 35.1378 108.797 35.1687C108.746 35.1997 108.687 35.2155 108.628 35.2144H103.794C103.74 35.2142 103.688 35.2007 103.641 35.1752C103.594 35.1497 103.554 35.1131 103.524 35.0683L98.4689 28.5124C98.4377 28.4726 98.3945 28.4433 98.3465 28.4285C98.2977 28.4136 98.2465 28.4139 98.1977 28.4294C98.1497 28.4447 98.1073 28.4746 98.0769 28.5147C98.0457 28.5549 98.0281 28.6035 98.0257 28.6541V34.8913C98.0257 34.9771 97.9905 35.0594 97.9297 35.1199C97.8689 35.1804 97.7865 35.2144 97.7009 35.2144H93.3361C93.2505 35.2139 93.1689 35.1796 93.1081 35.1191C93.0473 35.0587 93.0137 34.9768 93.0129 34.8913V13.8203C93.0121 13.7561 93.0241 13.6924 93.0489 13.6329C93.0729 13.5735 93.1089 13.5194 93.1537 13.4739C93.1993 13.4284 93.2529 13.3923 93.3121 13.3678C93.3721 13.3433 93.4353 13.3309 93.5001 13.3312H97.5393C97.6673 13.3312 97.7905 13.3822 97.8817 13.4731C97.9729 13.564 98.0241 13.6873 98.0241 13.8159V24.8826C98.0257 24.9277 98.0409 24.9713 98.0681 25.0074C98.0953 25.0437 98.1321 25.0706 98.1753 25.0849C98.2185 25.0991 98.2641 25.0998 98.3081 25.087C98.3513 25.0742 98.3897 25.0484 98.4177 25.0131C99.3913 23.6851 102.749 18.9796 103.287 18.2115C103.317 18.1684 103.356 18.1332 103.402 18.1089C103.449 18.0846 103.5 18.0719 103.553 18.0721H108.274C108.334 18.0706 108.394 18.087 108.446 18.1192C108.498 18.1515 108.538 18.1982 108.563 18.2536C108.591 18.3075 108.603 18.3685 108.598 18.429C108.591 18.4894 108.568 18.547 108.53 18.5945L103.046 26.0114ZM204.359 27.1534C204.029 26.6842 204.029 26.5138 204.383 26.0114L209.877 18.5945C209.914 18.5463 209.936 18.489 209.942 18.4289C209.947 18.3687 209.937 18.3082 209.91 18.2539C209.883 18.1997 209.842 18.154 209.79 18.1218C209.739 18.0898 209.681 18.0725 209.62 18.0721H204.89C204.838 18.0718 204.786 18.0843 204.74 18.1086C204.694 18.133 204.654 18.1683 204.625 18.2115C204.086 18.9796 200.729 23.6851 199.755 25.0131C199.727 25.0493 199.689 25.0758 199.645 25.0892C199.602 25.1026 199.554 25.102 199.511 25.0877C199.467 25.0734 199.43 25.046 199.402 25.0093C199.375 24.9725 199.36 24.9282 199.359 24.8826V13.8159C199.359 13.7522 199.346 13.6892 199.322 13.6304C199.298 13.5716 199.262 13.5181 199.217 13.4731C199.172 13.4281 199.118 13.3924 199.06 13.368C199.001 13.3437 198.938 13.3311 198.874 13.3311H194.826C194.762 13.3311 194.699 13.3437 194.641 13.368C194.582 13.3924 194.528 13.4281 194.483 13.4731C194.438 13.5181 194.402 13.5716 194.378 13.6304C194.354 13.6892 194.342 13.7522 194.342 13.8159V34.8868C194.342 34.9727 194.377 35.0549 194.438 35.1154C194.498 35.176 194.581 35.2099 194.666 35.2099H199.031C199.117 35.2094 199.199 35.1751 199.259 35.1147C199.32 35.0542 199.354 34.9723 199.354 34.8868V28.6541C199.358 28.6041 199.377 28.5563 199.407 28.517C199.438 28.4775 199.48 28.4483 199.528 28.433C199.575 28.4178 199.626 28.4172 199.674 28.4314C199.722 28.4455 199.766 28.4738 199.798 28.5124L204.853 35.0683C204.882 35.1129 204.923 35.1494 204.97 35.175C205.017 35.2004 205.069 35.2139 205.122 35.2144H209.958C210.018 35.215 210.077 35.199 210.127 35.1681C210.178 35.1371 210.219 35.0926 210.246 35.0395C210.274 34.987 210.287 34.9274 210.283 34.8678C210.279 34.8082 210.258 34.751 210.222 34.7031L204.359 27.1534ZM126.241 31.4774L126.292 31.4893C126.373 31.5079 126.444 31.5564 126.491 31.625C126.537 31.6935 126.555 31.7771 126.542 31.859L126.142 34.7717C126.134 34.8446 126.102 34.9128 126.051 34.9648C125.999 35.0168 125.931 35.0494 125.858 35.0572L125.782 35.0653C125.221 35.1246 123.49 35.3078 122.246 34.7164C121.657 34.4556 121.148 34.0404 120.774 33.5146C120.763 33.4966 120.749 33.4811 120.731 33.469C120.714 33.457 120.694 33.4487 120.674 33.4446C120.653 33.4404 120.631 33.4406 120.61 33.445C120.59 33.4494 120.57 33.458 120.554 33.4702C119.92 33.9262 117.16 35.7013 114.046 35.1259C113.139 34.9687 112.289 34.5774 111.58 33.9904C109.258 31.9984 109.104 27.7244 111.383 25.5952C111.955 25.1168 112.602 24.7354 113.298 24.4664C116.244 23.1893 120.25 23.3797 120.25 23.3797C120.294 22.6138 120.153 21.6355 118.245 21.4629C116.71 21.2938 113.875 21.7922 113.035 21.94C112.962 21.9527 112.905 21.9629 112.864 21.9698C112.801 21.9814 112.735 21.9803 112.673 21.9664C112.61 21.9525 112.55 21.9261 112.498 21.8887C112.445 21.8514 112.4 21.8038 112.366 21.749C112.332 21.6941 112.31 21.633 112.3 21.5691L111.383 18.8446C111.373 18.7816 111.374 18.7171 111.389 18.6549C111.402 18.5926 111.429 18.5338 111.466 18.4818C111.503 18.4297 111.55 18.3855 111.604 18.3517C111.658 18.3178 111.718 18.295 111.782 18.2846C112.654 18.1474 115.086 17.7998 116.14 17.687C121.53 17.047 123.181 18.8238 123.786 19.4746L123.786 19.475C123.823 19.515 123.857 19.5509 123.886 19.5816C125.199 21.0512 125.287 23.1229 125.274 24.9887L125.239 29.8581C125.239 31.2491 125.714 31.3574 126.241 31.4774ZM119.975 30.2742C120.142 30.1037 120.236 29.875 120.237 29.6367V26.8081C120.237 26.511 119.434 26.5986 119.235 26.6202C119.211 26.6228 119.197 26.6244 119.192 26.6244C117.838 26.8081 116.877 27.0604 116.264 27.3791C115.485 27.7908 115.093 28.4128 115.093 29.2383C115.082 29.5194 115.136 29.7991 115.251 30.0556C115.366 30.3122 115.539 30.5385 115.757 30.7169C117.394 31.8855 119.444 30.8386 119.975 30.2742ZM153.611 31.4893L153.559 31.4774C153.035 31.3574 152.56 31.2487 152.56 29.8581L152.596 24.9887C152.609 23.1229 152.518 21.0512 151.208 19.5816C151.178 19.5504 151.143 19.5139 151.106 19.473C150.498 18.8208 148.845 17.0475 143.462 17.687C142.408 17.7998 139.975 18.1474 139.103 18.2846C138.977 18.3067 138.864 18.3781 138.79 18.483C138.715 18.5878 138.686 18.7178 138.707 18.8446L139.623 21.5691C139.633 21.633 139.656 21.6941 139.69 21.749C139.724 21.8038 139.768 21.8514 139.821 21.8887C139.874 21.9261 139.933 21.9525 139.996 21.9664C140.059 21.9803 140.124 21.9814 140.188 21.9698L140.225 21.963C140.826 21.8531 143.934 21.2853 145.562 21.4585C147.47 21.6311 147.611 22.6094 147.569 23.3752C147.569 23.3752 143.561 23.1849 140.615 24.462C139.922 24.7319 139.278 25.1132 138.71 25.5908C136.432 27.72 136.584 31.994 138.906 33.986C139.615 34.5729 140.465 34.9643 141.372 35.1215C144.488 35.6969 147.246 33.9218 147.879 33.4658C147.896 33.4536 147.916 33.445 147.937 33.4406C147.957 33.4361 147.978 33.436 147.999 33.4402C148.02 33.4442 148.04 33.4526 148.057 33.4646C148.074 33.4767 148.089 33.4922 148.1 33.5101C148.474 34.0359 148.982 34.4512 149.572 34.7119C150.816 35.3034 152.546 35.1203 153.107 35.0609L153.185 35.0528C153.258 35.045 153.325 35.0124 153.377 34.9604C153.428 34.9084 153.461 34.8402 153.468 34.7673L153.879 31.859C153.892 31.7746 153.87 31.6888 153.821 31.6198C153.77 31.5508 153.695 31.504 153.611 31.4893ZM147.567 29.6367C147.566 29.875 147.472 30.1037 147.306 30.2742C146.772 30.8386 144.723 31.8855 143.087 30.7169C142.87 30.5384 142.697 30.312 142.582 30.0555C142.466 29.799 142.412 29.5194 142.423 29.2383C142.423 28.4128 142.815 27.7908 143.596 27.3791C144.21 27.0604 145.168 26.8081 146.522 26.6244C146.526 26.6244 146.542 26.6228 146.565 26.6202C146.764 26.5986 147.569 26.511 147.569 26.8081L147.567 29.6367ZM191.249 31.4774C191.266 31.4814 191.283 31.4854 191.3 31.4893C191.381 31.5074 191.452 31.5548 191.499 31.6223C191.546 31.6898 191.567 31.7726 191.557 31.8545L191.156 34.7673C191.149 34.8402 191.117 34.9084 191.066 34.9604C191.014 35.0124 190.946 35.045 190.873 35.0528C190.85 35.0551 190.824 35.0579 190.794 35.061C190.23 35.1206 188.502 35.3029 187.261 34.7119C186.67 34.4518 186.162 34.0364 185.789 33.5101C185.778 33.4924 185.763 33.4772 185.746 33.4653C185.728 33.4534 185.709 33.4452 185.688 33.4411C185.667 33.437 185.646 33.437 185.626 33.4413C185.605 33.4455 185.585 33.4538 185.568 33.4658C184.934 33.9218 182.174 35.6969 179.061 35.1215C178.154 34.9648 177.303 34.5734 176.595 33.986C174.273 31.994 174.118 27.72 176.398 25.5908C176.967 25.1132 177.611 24.7319 178.303 24.462C181.25 23.1849 185.256 23.3752 185.256 23.3752C185.298 22.6094 185.158 21.6311 183.25 21.4585C181.614 21.2846 178.486 21.858 177.906 21.9645L177.876 21.9698C177.813 21.9815 177.747 21.9804 177.684 21.9665C177.622 21.9526 177.562 21.9262 177.509 21.8889C177.456 21.8515 177.411 21.804 177.377 21.7491C177.342 21.6942 177.32 21.633 177.31 21.5691L176.394 18.8446C176.373 18.7176 176.403 18.5876 176.478 18.4828C176.552 18.378 176.665 18.3068 176.792 18.2846C177.662 18.1474 180.096 17.7998 181.148 17.687C186.538 17.047 188.189 18.8238 188.794 19.4746C188.831 19.5149 188.864 19.5508 188.894 19.5816C190.205 21.0512 190.295 23.1229 190.282 24.9887L190.246 29.8581C190.246 31.2491 190.722 31.3574 191.249 31.4774ZM184.992 30.2742C185.158 30.1037 185.252 29.875 185.254 29.6367V26.8081C185.254 26.511 184.45 26.5986 184.251 26.6202C184.228 26.6228 184.213 26.6244 184.209 26.6244C182.852 26.8081 181.894 27.0604 181.281 27.3791C180.499 27.7908 180.11 28.4128 180.11 29.2383C180.098 29.5194 180.153 29.7991 180.268 30.0556C180.383 30.3122 180.556 30.5385 180.774 30.7169C182.411 31.8855 184.459 30.8386 184.992 30.2742Z" fill="#A9A7C4"/>
</svg>
