<svg width="107" height="48" viewBox="0 0 107 48" fill="none" xmlns="http://www.w3.org/2000/svg">
<g clip-path="url(#clip0_195_436)">
<path fill-rule="evenodd" clip-rule="evenodd" d="M37.9538 34.122H37.0451C37.0162 34.1223 36.9878 34.1292 36.9622 34.1424C36.9365 34.1556 36.9143 34.1746 36.8973 34.1979L35.2698 36.9372C35.1952 37.0374 35.1342 37.0374 35.0623 36.9372L33.4864 34.2006C33.4692 34.1771 33.4468 34.1579 33.4209 34.1445C33.395 34.1311 33.3664 34.1239 33.3372 34.1234H32.4462C32.4215 34.1236 32.397 34.1286 32.3742 34.1383C32.3514 34.1479 32.3307 34.1619 32.3133 34.1795C32.2959 34.1971 32.2822 34.218 32.2729 34.2409C32.2636 34.2638 32.2589 34.2883 32.2591 34.3131V39.8133C32.2589 39.8379 32.2636 39.8624 32.2729 39.8852C32.2822 39.9081 32.296 39.9288 32.3134 39.9463C32.3308 39.9638 32.3515 39.9777 32.3743 39.9872C32.3971 39.9967 32.4215 40.0016 32.4462 40.0016H33.3345C33.3592 40.0016 33.3837 39.9967 33.4065 39.9872C33.4293 39.9777 33.4499 39.9638 33.4673 39.9463C33.4847 39.9288 33.4985 39.9081 33.5078 39.8852C33.5172 39.8624 33.5219 39.8379 33.5217 39.8133V36.9832C33.5217 36.8017 33.6939 36.7245 33.8011 36.8721L35.0216 38.8812C35.0389 38.9047 35.0615 38.9238 35.0875 38.937C35.1135 38.9502 35.1423 38.9571 35.1715 38.9571C35.2007 38.9571 35.2295 38.9502 35.2555 38.937C35.2816 38.9238 35.3041 38.9047 35.3214 38.8812L36.5813 36.8654C36.6884 36.7204 36.8607 36.799 36.8607 36.9792V39.8092C36.8605 39.8339 36.8652 39.8583 36.8745 39.8811C36.8838 39.904 36.8976 39.9248 36.915 39.9423C36.9324 39.9598 36.9531 39.9737 36.9759 39.9831C36.9987 39.9926 37.0231 39.9975 37.0478 39.9975H37.9524C38.0024 39.9975 38.0504 39.9777 38.0857 39.9423C38.1211 39.907 38.1409 39.8591 38.1409 39.8092V34.309C38.1409 34.2589 38.1211 34.2109 38.0858 34.1754C38.0505 34.1398 38.0025 34.1197 37.9524 34.1193M44.2886 37.6972H43.1019C43.0719 37.6958 43.0427 37.6873 43.0166 37.6724C42.9906 37.6575 42.9685 37.6366 42.9522 37.6114C42.9359 37.5862 42.9258 37.5575 42.9228 37.5276C42.9199 37.4978 42.9241 37.4677 42.9351 37.4398L43.5264 35.8615C43.5383 35.8271 43.5606 35.7972 43.5903 35.7761C43.6199 35.7549 43.6554 35.7435 43.6919 35.7435C43.7283 35.7435 43.7639 35.7549 43.7935 35.7761C43.8232 35.7972 43.8455 35.8271 43.8573 35.8615L44.4541 37.4398C44.4651 37.4676 44.4693 37.4976 44.4664 37.5273C44.4636 37.5571 44.4536 37.5857 44.4374 37.6109C44.4213 37.636 44.3993 37.657 44.3735 37.672C44.3476 37.687 44.3185 37.6956 44.2886 37.6972ZM44.3185 34.2331C44.306 34.2002 44.284 34.1718 44.2552 34.1515C44.2265 34.1313 44.1923 34.12 44.1571 34.1193H43.2348C43.1995 34.12 43.1651 34.1311 43.1361 34.1514C43.1071 34.1717 43.0848 34.2001 43.0721 34.2331L40.7666 39.7333C40.7542 39.7613 40.7488 39.792 40.751 39.8225C40.7531 39.8531 40.7627 39.8826 40.7788 39.9087C40.795 39.9347 40.8173 39.9564 40.8437 39.9719C40.8702 39.9873 40.9 39.9961 40.9307 39.9975H41.8569C41.8934 39.997 41.9289 39.9853 41.9585 39.964C41.9881 39.9426 42.0104 39.9127 42.0224 39.8783L42.3642 38.9584C42.3763 38.9241 42.3987 38.8943 42.4282 38.873C42.4578 38.8517 42.4932 38.8399 42.5296 38.8392H44.865C44.9013 38.8396 44.9367 38.8511 44.9663 38.8722C44.9959 38.8932 45.0183 38.9229 45.0305 38.9571L45.379 39.8796C45.3912 39.9138 45.4136 39.9435 45.4432 39.9645C45.4728 39.9856 45.5081 39.9971 45.5445 39.9975H46.4558C46.4865 39.9962 46.5164 39.9875 46.5428 39.972C46.5693 39.9565 46.5915 39.9348 46.6076 39.9087C46.6237 39.8826 46.6331 39.8529 46.635 39.8224C46.6369 39.7918 46.6313 39.7612 46.6186 39.7333L44.313 34.2331H44.3185ZM60.1631 36.9101C60.1392 36.8787 60.1263 36.8404 60.1263 36.801C60.1263 36.7616 60.1392 36.7233 60.1631 36.692L61.8407 34.603C61.8622 34.577 61.8758 34.5454 61.8802 34.512C61.8845 34.4786 61.8792 34.4446 61.8651 34.414C61.8509 34.3834 61.8283 34.3575 61.8 34.3391C61.7717 34.3208 61.7388 34.3108 61.7051 34.3104H60.7828C60.7566 34.3108 60.7308 34.3171 60.7073 34.3288C60.6838 34.3405 60.6633 34.3574 60.6472 34.3781L58.7594 36.7949C58.7368 36.824 58.7057 36.8453 58.6703 36.8557C58.6349 36.866 58.5972 36.865 58.5625 36.8527C58.5277 36.8404 58.4978 36.8174 58.4769 36.7871C58.456 36.7568 58.4452 36.7206 58.4461 36.6838V34.4892C58.4463 34.4659 58.4419 34.4428 58.4331 34.4212C58.4243 34.3996 58.4114 34.3799 58.395 34.3633C58.3786 34.3467 58.3592 34.3335 58.3377 34.3244C58.3162 34.3153 58.2931 34.3105 58.2698 34.3104H57.433C57.3861 34.3111 57.3414 34.3303 57.3086 34.3638C57.2759 34.3973 57.2577 34.4423 57.2581 34.4892V39.8214C57.2577 39.8682 57.2759 39.9133 57.3086 39.9468C57.3414 39.9803 57.3861 39.9995 57.433 40.0002H58.2644C58.2877 40 58.3108 39.9953 58.3322 39.9862C58.3537 39.9771 58.3732 39.9639 58.3896 39.9473C58.406 39.9307 58.4189 39.911 58.4277 39.8894C58.4364 39.8678 58.4408 39.8447 58.4407 39.8214V38.888C58.4402 38.847 58.4541 38.8073 58.48 38.7755L59.1879 37.895C59.2049 37.8734 59.2267 37.8562 59.2516 37.8448C59.2764 37.8333 59.3037 37.8279 59.3311 37.8289C59.3585 37.83 59.3852 37.8375 59.4091 37.8508C59.433 37.8642 59.4534 37.883 59.4687 37.9058L60.8412 39.9189C60.8574 39.9423 60.8791 39.9615 60.9044 39.9747C60.9296 39.9879 60.9577 39.9948 60.9863 39.9948H62.0197C62.0518 39.9931 62.0828 39.9827 62.1096 39.9649C62.1363 39.9471 62.1577 39.9224 62.1716 39.8934C62.1855 39.8644 62.1913 39.8323 62.1884 39.8003C62.1855 39.7683 62.1741 39.7377 62.1553 39.7116L60.1631 36.9101ZM69.8884 38.9029H67.1502C67.0954 38.9032 67.0427 38.8819 67.0036 38.8436C66.9645 38.8053 66.9421 38.753 66.9414 38.6983V37.8638C66.9417 37.8368 66.9474 37.81 66.9581 37.7852C66.9688 37.7604 66.9843 37.7379 67.0037 37.719C67.0231 37.7001 67.046 37.6852 67.0711 37.6752C67.0963 37.6652 67.1232 37.6602 67.1502 37.6606H68.9838C69.0388 37.6606 69.0915 37.639 69.1306 37.6004C69.1697 37.5619 69.192 37.5095 69.1927 37.4547V36.8315C69.192 36.7768 69.1696 36.7245 69.1305 36.6862C69.0914 36.6479 69.0386 36.6266 68.9838 36.6269H67.1502C67.1231 36.6273 67.0961 36.6223 67.0708 36.6122C67.0456 36.6021 67.0226 36.5871 67.0032 36.5681C66.9838 36.5491 66.9683 36.5264 66.9577 36.5014C66.9471 36.4764 66.9416 36.4495 66.9414 36.4224V35.6095C66.9421 35.5548 66.9645 35.5026 67.0036 35.4642C67.0427 35.4259 67.0954 35.4046 67.1502 35.405H69.6972C69.7245 35.4057 69.7516 35.401 69.777 35.3913C69.8025 35.3815 69.8258 35.3669 69.8455 35.3481C69.8653 35.3294 69.8812 35.3069 69.8923 35.282C69.9034 35.2572 69.9094 35.2303 69.9101 35.2031V34.5149C69.9094 34.4602 69.8871 34.4079 69.8479 34.3696C69.8088 34.3313 69.7561 34.31 69.7013 34.3104H65.9039C65.8491 34.31 65.7964 34.3313 65.7572 34.3696C65.7181 34.4079 65.6957 34.4602 65.695 34.5149V39.7984C65.6957 39.8531 65.7181 39.9053 65.7572 39.9436C65.7964 39.982 65.8491 40.0033 65.9039 40.0029H69.8871C69.9419 40.0033 69.9946 39.982 70.0337 39.9436C70.0728 39.9053 70.0952 39.8531 70.0959 39.7984V39.1101C70.0952 39.0554 70.0728 39.0032 70.0337 38.9649C69.9946 38.9265 69.9419 38.9052 69.8871 38.9056M76.5325 34.1248H72.2943C72.271 34.126 72.2481 34.1318 72.227 34.1418C72.2059 34.1519 72.187 34.166 72.1714 34.1834C72.1558 34.2007 72.1438 34.221 72.136 34.243C72.1282 34.2651 72.1249 34.2884 72.1262 34.3117V35.0717C72.1249 35.095 72.1282 35.1184 72.136 35.1404C72.1438 35.1624 72.1558 35.1827 72.1714 35.2C72.187 35.2174 72.2059 35.2315 72.227 35.2416C72.2481 35.2516 72.271 35.2575 72.2943 35.2587H73.6736C73.6969 35.2599 73.7198 35.2657 73.7409 35.2757C73.762 35.2858 73.7809 35.2999 73.7965 35.3173C73.8122 35.3346 73.8242 35.3549 73.832 35.3769C73.8397 35.399 73.8431 35.4223 73.8418 35.4456V39.8173C73.8399 39.8641 73.8565 39.9097 73.8879 39.9444C73.9194 39.9791 73.9632 40.0001 74.0099 40.0029H74.8088C74.8555 40.0001 74.8993 39.9791 74.9308 39.9444C74.9622 39.9097 74.9788 39.8641 74.9769 39.8173V35.4429C74.9756 35.4196 74.979 35.3963 74.9867 35.3742C74.9945 35.3522 75.0065 35.3319 75.0222 35.3146C75.0378 35.2972 75.0567 35.2831 75.0778 35.273C75.0989 35.263 75.1218 35.2572 75.1451 35.256H76.5325C76.5558 35.2547 76.5787 35.2489 76.5998 35.2389C76.6209 35.2288 76.6398 35.2147 76.6554 35.1973C76.671 35.18 76.6831 35.1597 76.6908 35.1377C76.6986 35.1157 76.702 35.0923 76.7007 35.069V34.309C76.7029 34.262 76.6865 34.216 76.655 34.181C76.6235 34.146 76.5795 34.1248 76.5325 34.122M51.996 37.3422C51.7681 37.3558 51.5457 37.3585 51.3111 37.3544C51.2625 37.353 51.2164 37.3326 51.1827 37.2977C51.149 37.2628 51.1303 37.216 51.1307 37.1675V35.4212C51.1303 35.3971 51.1348 35.3731 51.1437 35.3507C51.1527 35.3283 51.166 35.3079 51.1829 35.2906C51.1998 35.2734 51.2199 35.2596 51.2422 35.2502C51.2644 35.2408 51.2883 35.2358 51.3124 35.2356C51.5186 35.2356 51.7193 35.2356 51.9471 35.2519C52.6917 35.2844 53.2559 35.6366 53.2559 36.2896C53.2559 36.8654 52.8626 37.2826 51.996 37.3422ZM54.4805 36.3221C54.4805 35.0419 53.5312 34.1315 51.8834 34.122C51.2934 34.122 50.7116 34.1369 50.0864 34.1464C50.038 34.1475 49.9919 34.1676 49.9581 34.2023C49.9244 34.237 49.9057 34.2836 49.906 34.332V39.8146C49.9057 39.8632 49.9246 39.91 49.9586 39.9448C49.9927 39.9796 50.0391 39.9995 50.0878 40.0002H50.949C50.9977 39.9995 51.0441 39.9796 51.0781 39.9448C51.1122 39.91 51.1311 39.8632 51.1307 39.8146V38.6509C51.1307 38.5046 51.1592 38.4639 51.3138 38.4639C51.4996 38.4639 51.7803 38.4639 51.9919 38.4639C52.0312 38.4639 52.0733 38.4639 52.1126 38.4639C52.3147 38.4639 52.3689 38.4463 52.4259 38.5601L53.0809 39.8932C53.0955 39.924 53.1186 39.95 53.1474 39.9682C53.1762 39.9864 53.2096 39.9961 53.2437 39.9961H54.2323C54.2639 39.9955 54.2948 39.9869 54.3222 39.971C54.3495 39.9552 54.3723 39.9326 54.3884 39.9055C54.4046 39.8784 54.4136 39.8476 54.4145 39.816C54.4154 39.7845 54.4083 39.7532 54.3937 39.7252L53.6356 38.1984C53.6157 38.1583 53.6108 38.1123 53.6217 38.0689C53.6326 38.0254 53.6587 37.9873 53.6953 37.9613C53.9508 37.7731 54.1564 37.5254 54.2942 37.2397C54.4319 36.954 54.4978 36.639 54.486 36.3221M89.1954 17.8762C90.6872 17.8762 89.8369 23.9318 87.2221 24.3328C87.1043 23.8869 87.0405 23.4284 87.0323 22.9672C87.0323 20.9893 87.7782 17.8762 89.2022 17.8762M52.1045 27.1601C49.3988 27.1601 51.2907 17.864 53.4742 17.864C54.9254 17.864 54.6948 27.1601 52.1045 27.1601ZM42.6815 17.8328C44.233 17.8328 43.3122 23.7042 40.7625 24.6674C40.5876 24.117 40.4926 23.5445 40.4804 22.9672C40.4804 20.9893 41.2683 17.8328 42.6869 17.8328M93.9991 23.1826C93.9232 23.2571 93.2206 27.4812 90.1895 27.4812C89.0123 27.4812 88.181 26.5979 87.6683 25.5426C91.3762 24.7297 92.6185 21.8198 92.6185 19.8297C92.6131 17.5117 90.9544 16.6705 89.5426 16.6705C87.2371 16.6705 84.233 18.7974 84.233 22.9632C84.2327 23.3253 84.2536 23.6872 84.2954 24.0469C83.4966 23.8058 82.8036 23.3845 82.3344 22.6651C83.026 19.5899 82.904 16.6488 81.4691 16.6488C80.6635 16.6488 79.9773 17.6987 79.9773 19.9882C79.9891 20.9752 80.236 21.9453 80.6974 22.8182C80.4031 24.2122 79.3914 27.618 78.1057 27.618C76.3318 27.618 76.8851 19.2553 76.8851 18.0198C76.8851 17.0118 74.429 15.9552 73.8906 16.4903C73.656 16.7233 73.6194 18.0861 73.6194 19.85C73.6115 21.4406 73.7555 23.0283 74.0493 24.5915C73.8784 25.4518 73.1488 27.66 71.7831 27.66C69.6674 27.66 70.7388 19.7403 70.7388 18.4655C70.7388 17.5551 68.3763 16.7043 67.7999 17.272C67.572 17.4982 67.4147 19.0995 67.4147 21.5935C67.4095 22.658 67.4806 23.7215 67.6276 24.7758C67.4052 25.8812 66.5277 27.66 65.1051 27.66C62.8429 27.66 63.8438 18.9803 64.446 13.6291C64.8135 13.5627 65.1892 13.5072 65.577 13.4638C66.5671 13.3541 67.7822 13.1631 67.7822 13.7605C67.7822 15.1694 68.7248 15.6029 69.4232 15.6029C70.1854 15.6029 70.8744 15.0041 70.8744 13.8594C70.8744 12.7147 69.8898 11.6675 68.1267 11.6675C66.9513 11.6813 65.7788 11.7901 64.6209 11.9926C64.7145 11.0971 64.7769 10.3886 64.7769 9.96049C64.7769 8.76698 62.3072 7.6263 61.8203 8.10994C61.7268 8.20341 61.3958 10.0716 61.111 12.6591C59.3968 12.9991 57.6988 13.2972 56.0212 13.2972C55.4407 13.2972 55.5153 15.0394 57.5022 15.0394C58.6441 15.0394 59.763 14.7887 60.9307 14.4826C60.772 16.2925 60.6594 18.2988 60.6594 20.2307C60.6421 21.7447 60.7496 23.2577 60.9808 24.7541C60.7584 25.716 60.0546 27.6573 58.7797 27.6573C56.2951 27.6573 57.4737 19.1347 57.4737 17.8599C57.4737 17.2543 55.2129 15.9484 54.745 16.4103C54.6799 16.4767 54.6406 16.8357 54.6406 16.8357C54.6406 16.8357 54.3395 16.6163 53.5054 16.6163C50.3333 16.6163 47.7876 20.5016 47.7876 24.0469C47.7876 24.2176 47.7958 24.3802 47.8053 24.5428C47.3143 25.6835 46.072 27.6586 43.8221 27.6586C42.7019 27.6586 41.8814 26.9122 41.3321 25.9679C44.8081 24.9925 46.1873 21.958 46.1873 20.0207C46.1873 17.7515 44.2452 16.6339 42.8334 16.6339C40.3841 16.6339 37.6798 19.0724 37.6798 23.1799C37.6638 24.2468 37.8756 25.3049 38.301 26.2836C37.867 26.9745 37.1848 27.6641 36.2666 27.6641C33.7265 27.6641 35.4285 19.197 35.4285 18.2934C35.4285 18.0699 35.4285 17.6486 35.0284 17.3654C34.4968 16.9956 31.4358 16.5919 30.3983 16.3887C30.4065 16.1638 30.4092 15.9579 30.4092 15.7736C30.4092 14.1371 29.3744 13.7605 28.7085 13.7605C27.5815 13.7605 27.3455 15.015 27.3455 15.3184C27.3502 15.7314 27.4648 16.1356 27.6777 16.4897C27.8905 16.8437 28.1939 17.1348 28.5566 17.3329C28.5566 20.3905 26.5928 27.6058 21.3226 27.6058C17.3475 27.6058 15.8977 23.5416 15.8977 20.5138C15.8977 15.4187 18.9099 11.4737 20.8615 11.4737C23.3026 11.4737 21.1503 16.153 23.5969 16.153C25.322 16.153 25.5621 14.4975 25.5621 13.7361C25.5621 12.3109 24.0608 9.64213 20.871 9.64213C15.773 9.63942 12 15.7885 12 21.0598C12 26.1251 15.5058 30.2042 20.4261 30.2042C28.0209 30.2042 29.9196 22.2005 30.3156 17.7217C30.8025 17.8572 32.0054 18.0645 32.1234 18.1823C32.3214 18.3788 31.7396 21.0963 31.7396 23.711C31.7396 26.9894 32.8246 29.6135 35.4258 29.6135C37.0532 29.6135 38.3674 28.4403 39.055 27.5381C39.5353 28.162 40.151 28.6689 40.8557 29.0209C41.5604 29.3729 42.3358 29.5607 43.1236 29.5702C45.6869 29.5702 47.3726 27.9838 48.223 26.7076C48.9377 28.6246 50.3997 29.5702 51.7234 29.5702C53.5705 29.5702 54.684 27.1086 54.7477 26.7117C55.3065 28.4281 56.6098 29.6094 58.0799 29.6094C59.9433 29.6094 61.0636 27.935 61.5179 26.8878C62.1784 28.6571 63.2335 29.6094 64.747 29.6094C66.4816 29.6094 67.6276 28.0461 68.1376 26.9962C68.68 28.5284 69.5941 29.6094 71.0466 29.6094C72.9901 29.6094 74.1971 27.6437 74.5999 26.6412C75.2387 28.3319 76.2409 29.5498 77.7734 29.5498C79.4863 29.5498 80.9727 27.1195 81.861 24.3694C82.6336 25.0931 83.6132 25.5577 84.663 25.6984C85.5269 28.168 87.5463 29.5485 89.6742 29.5485C93.3942 29.5485 94.8278 25.7553 94.9742 24.8706C95.1207 23.986 94.2717 22.8954 93.9855 23.1786" fill="#A9A7C4"/>
</g>
<defs>
<clipPath id="clip0_195_436">
<rect width="83" height="32" fill="white" transform="translate(12 8)"/>
</clipPath>
</defs>
</svg>
