<svg width="80" height="32" viewBox="0 0 80 32" fill="none" xmlns="http://www.w3.org/2000/svg">
<g clip-path="url(#clip0_195_452)">
<path d="M10.3241 6.98438C4.69268 6.98438 0 9.37319 0 16.5812C0 22.2915 3.15553 25.8872 10.4693 25.8872C19.0781 25.8872 19.6299 20.2164 19.6299 20.2164H15.4586C15.4586 20.2164 14.5643 23.2699 10.2149 23.2699C6.67245 23.2699 4.12464 20.8768 4.12464 17.5229H20.0663V15.4179C20.0663 12.0997 17.9598 6.98438 10.3241 6.98438ZM10.1784 9.67439C13.5505 9.67439 15.8493 11.7402 15.8493 14.8363H4.21678C4.21678 11.5492 7.21759 9.67439 10.1784 9.67439Z" fill="#A9A7C4"/>
<path d="M20.0629 0.00488281V22.2678C20.0629 23.5314 19.9727 25.3059 19.9727 25.3059H23.9511C23.9511 25.3059 24.0941 24.0315 24.0941 22.8667C24.0941 22.8667 26.0597 25.9421 31.4046 25.9421C37.0329 25.9421 40.856 22.0342 40.856 16.4361C40.856 11.2278 37.3444 7.03898 31.4137 7.03898C25.86 7.03898 24.1343 10.0379 24.1343 10.0379V0.00488281H20.0629ZM30.3868 9.79265C34.2089 9.79265 36.6395 12.6294 36.6395 16.4361C36.6395 20.5181 33.8323 23.1884 30.4142 23.1884C26.3348 23.1884 24.1343 20.003 24.1343 16.4723C24.1343 13.1823 26.1088 9.79265 30.3868 9.79265Z" fill="#A9A7C4"/>
<path d="M50.7438 6.98438C42.2719 6.98438 41.7286 11.623 41.7286 12.3644H45.9454C45.9454 12.3644 46.1664 9.65628 50.453 9.65628C53.2383 9.65628 55.3968 10.9314 55.3968 13.3823V14.2547H50.453C43.8897 14.2547 40.4199 16.1748 40.4199 20.0712C40.4199 23.9056 43.6258 25.9919 47.9584 25.9919C53.8631 25.9919 55.7651 22.7293 55.7651 22.7293C55.7651 24.027 55.865 25.3058 55.865 25.3058H59.6136C59.6136 25.3058 59.4684 23.7207 59.4684 22.7066V13.9412C59.4684 8.1937 54.8325 6.98438 50.7438 6.98438ZM55.3968 16.872V18.0353C55.3968 19.5524 54.4604 23.3245 48.9488 23.3245C45.9307 23.3245 44.6367 21.8182 44.6367 20.0709C44.6367 16.8925 48.9944 16.872 55.3968 16.872Z" fill="#A9A7C4"/>
<path d="M57.1992 7.71191H61.943L68.7513 21.3519L75.5438 7.71191H79.8413L67.4687 31.9953H62.9609L66.5311 25.2259L57.1992 7.71191Z" fill="#A9A7C4"/>
</g>
<defs>
<clipPath id="clip0_195_452">
<rect width="80" height="32" fill="white"/>
</clipPath>
</defs>
</svg>
