<svg width="153" height="40" viewBox="0 0 153 40" fill="none" xmlns="http://www.w3.org/2000/svg">
<path d="M6.87484 28.4878C6.87484 32.9294 1.11397e-06 32.9294 9.20308e-07 28.4878L0 3.33125C-1.93663e-07 -1.11042 6.87483 -1.11042 6.87483 3.33125L6.87484 28.4878Z" fill="#A9A7C4"/>
<path d="M18.0463 36.6687C18.0463 41.1104 11.1714 41.1104 11.1714 36.6687L11.1714 11.5122C11.1714 7.07056 18.0463 7.07056 18.0463 11.5122L18.0463 36.6687Z" fill="#A9A7C4"/>
<path d="M29.2181 28.4878C29.2181 32.9294 22.3433 32.9294 22.3433 28.4878L22.3433 3.33125C22.3433 -1.11042 29.2181 -1.11042 29.2181 3.33125V28.4878Z" fill="#A9A7C4"/>
<path d="M40.3896 36.6687C40.3896 41.1104 33.5147 41.1104 33.5147 36.6687V12.3221C33.5147 7.88039 40.3896 7.88039 40.3896 12.3221V36.6687Z" fill="#A9A7C4"/>
<path d="M64.8593 25.6545V29.1821H52.677V10.475H64.8593V14.0026H56.8089V18.1449H63.793V21.5122H56.8089V25.6545H64.8593Z" fill="#A9A7C4"/>
<path d="M71.9572 29.1821H67.932V15.2587H71.3174L71.6373 17.1561C72.9435 15.7397 74.4896 15.0181 76.3823 15.0181C78.0884 15.0181 79.2346 15.5259 79.9544 16.488C80.1676 16.7552 80.3276 17.0225 80.4608 17.3432C81.8204 15.7664 83.3665 15.0181 85.2858 15.0181C87.0452 15.0181 88.2181 15.5259 88.9378 16.488C89.6842 17.4768 89.8975 18.6259 89.8975 21.4587V29.1821H85.8989V22.3674C85.8989 20.7639 85.7923 20.0691 85.3658 19.5079C84.9126 18.9734 84.2995 18.7596 83.3398 18.7596C82.4601 18.7596 81.6871 19.0268 80.8874 19.6949C80.9407 20.2027 80.9407 20.7639 80.9407 21.4587V29.1821H76.9154V22.3674C76.9154 20.7639 76.8355 20.0691 76.3823 19.5079C75.9558 18.9734 75.3427 18.7596 74.4363 18.7596C73.45 18.7596 72.5437 19.107 71.9572 19.7217V29.1821Z" fill="#A9A7C4"/>
<path d="M99.7608 29.3959C98.7212 29.3959 97.6016 29.2088 96.5353 28.808L93.4697 29.1821V8.87151H97.495V17.0759C98.4813 15.713 99.8142 14.9914 101.627 14.9914C104.719 14.9914 106.798 17.3164 106.798 21.6725C106.798 26.6433 103.973 29.3959 99.7608 29.3959ZM97.495 20.3898V25.7881C98.1081 26.0554 98.6946 26.1623 99.3077 26.1623C101.254 26.1623 102.613 24.8795 102.613 22.0734C102.613 19.7217 101.6 18.5725 100.134 18.5725C98.9611 18.5725 98.1081 19.2139 97.495 20.3898Z" fill="#A9A7C4"/>
<path d="M113.375 29.1821H109.35V8.87151H113.375V29.1821Z" fill="#A9A7C4"/>
<path d="M123.535 29.3959C118.47 29.3959 115.938 27.0442 115.938 22.1803C115.938 17.5302 119.084 14.9914 122.682 14.9914C126.494 14.9914 128.334 17.2897 128.334 21.2984C128.334 22.0467 128.28 22.7148 128.227 23.3829H120.043C120.443 25.4674 121.856 26.189 124.442 26.189C125.508 26.189 126.601 26.0821 127.534 25.9485L127.347 29.1287C126.388 29.289 125.081 29.3959 123.535 29.3959ZM122.576 17.9846C121.189 17.9846 120.176 18.9734 119.963 21.1915L124.522 20.951C124.522 18.9199 123.908 17.9846 122.576 17.9846Z" fill="#A9A7C4"/>
<path d="M135.06 29.1821H131.034V15.2587H134.42L134.74 17.1561C136.046 15.7397 137.592 15.0181 139.485 15.0181C141.191 15.0181 142.337 15.5259 143.057 16.488C143.27 16.7552 143.43 17.0225 143.563 17.3432C144.923 15.7664 146.469 15.0181 148.388 15.0181C150.148 15.0181 151.321 15.5259 152.04 16.488C152.787 17.4768 153 18.6259 153 21.4587V29.1821H149.001V22.3674C149.001 20.7639 148.895 20.0691 148.468 19.5079C148.015 18.9734 147.402 18.7596 146.442 18.7596C145.563 18.7596 144.79 19.0268 143.99 19.6949C144.043 20.2027 144.043 20.7639 144.043 21.4587V29.1821H140.018V22.3674C140.018 20.7639 139.938 20.0691 139.485 19.5079C139.058 18.9734 138.445 18.7596 137.539 18.7596C136.553 18.7596 135.646 19.107 135.06 19.7217V29.1821Z" fill="#A9A7C4"/>
</svg>
