<svg width="175" height="48" viewBox="0 0 175 48" fill="none" xmlns="http://www.w3.org/2000/svg">
<path d="M23.3707 44.3475C46.2173 41.0837 46.2178 6.967 23.3707 3.70312C37.1024 13.5589 37.0653 34.4874 23.3707 44.3475Z" fill="#A9A7C4"/>
<path d="M14.3273 43.5347C15.7499 43.9919 17.1724 44.2967 18.6966 44.3983C30.5036 33.5662 30.5112 14.4317 18.6966 3.60156C17.1724 3.75398 15.6991 4.05881 14.3273 4.46525C24.2463 15.3546 24.2431 32.6489 14.3273 43.5347Z" fill="#A9A7C4"/>
<path d="M9.04404 40.9947C18.6739 31.9058 18.7654 16.1226 9.04404 7.05664C-2.82094 14.9666 -2.82593 33.0814 9.04404 40.9947Z" fill="#A9A7C4"/>
<path d="M68.431 16.9868C63.936 16.9868 61.363 20.2418 61.363 25.1398C61.363 30.1928 64.277 32.9518 68.462 32.9518C72.399 32.9518 74.786 30.7818 74.786 27.1548V27.0618H67.935V23.5588H78.475V36.2998H75.127L74.879 33.6958C73.639 35.4318 71.066 36.6408 67.997 36.6408C61.642 36.6408 57.209 32.0218 57.209 25.0468C57.209 18.1648 61.704 13.2668 68.524 13.2668C73.701 13.2668 77.7 16.2738 78.351 20.8928H74.166C73.453 18.2268 71.159 16.9868 68.431 16.9868ZM91.812 20.9238V24.4268H90.417C87.689 24.4268 85.984 25.8838 85.984 28.8598V36.2998H82.202V21.0168H85.767L85.984 23.2488C86.635 21.7298 88.092 20.7068 90.138 20.7068C90.665 20.7068 91.192 20.7688 91.812 20.9238ZM98.3235 36.7028C95.0685 36.7028 93.0845 34.8118 93.0845 31.9288C93.0845 29.1078 95.1305 27.3408 98.7575 27.0618L103.345 26.7208V26.3798C103.345 24.3028 102.105 23.4658 100.183 23.4658C97.9515 23.4658 96.7115 24.3958 96.7115 26.0078H93.4875C93.4875 22.6908 96.2155 20.5208 100.369 20.5208C104.492 20.5208 107.034 22.7528 107.034 26.9998V36.2998H103.717L103.438 34.0368C102.787 35.6178 100.71 36.7028 98.3235 36.7028ZM99.5635 33.8508C101.888 33.8508 103.376 32.4558 103.376 30.0998V29.2938L100.183 29.5418C97.8275 29.7588 96.9285 30.5338 96.9285 31.7738C96.9285 33.1688 97.8585 33.8508 99.5635 33.8508ZM110.75 43.3988V20.9858H114.253L114.501 23.3108C115.431 21.5438 117.446 20.5208 119.771 20.5208C124.08 20.5208 126.932 23.6518 126.932 28.4568C126.932 33.2308 124.328 36.7028 119.771 36.7028C117.477 36.7028 115.493 35.8038 114.532 34.2538V43.3988H110.75ZM114.563 28.6428C114.563 31.4018 116.268 33.2928 118.872 33.2928C121.538 33.2928 123.119 31.3708 123.119 28.6428C123.119 25.9148 121.538 23.9618 118.872 23.9618C116.268 23.9618 114.563 25.8838 114.563 28.6428ZM133.725 36.2998H129.943V13.2358H133.756V22.9698C134.717 21.4818 136.515 20.5208 138.716 20.5208C142.498 20.5208 144.482 22.9078 144.482 26.8758V36.2998H140.7V27.7748C140.7 25.2018 139.429 23.9618 137.507 23.9618C135.12 23.9618 133.725 25.6358 133.725 27.9298V36.2998ZM147.299 28.6118C147.299 23.8378 150.74 20.5518 155.483 20.5518C160.226 20.5518 163.667 23.8378 163.667 28.6118C163.667 33.3858 160.226 36.6718 155.483 36.6718C150.74 36.6718 147.299 33.3858 147.299 28.6118ZM151.081 28.6118C151.081 31.4018 152.879 33.2928 155.483 33.2928C158.087 33.2928 159.885 31.4018 159.885 28.6118C159.885 25.8218 158.087 23.9308 155.483 23.9308C152.879 23.9308 151.081 25.8218 151.081 28.6118Z" fill="#A9A7C4"/>
</svg>
