<svg width="178" height="58" viewBox="0 0 178 58" fill="none" xmlns="http://www.w3.org/2000/svg">
<path fill-rule="evenodd" clip-rule="evenodd" d="M12.1596 32.1447C12 32.1447 12 32.1447 12 32.1447C15.3822 56.0693 51.3659 55.834 55.0869 32.1447C54.9273 32.1447 54.9273 32.1447 54.9273 32.1447C53.3315 32.1447 51.8953 32.3034 50.2995 32.6209C46.3987 49.9058 20.483 50.0493 16.947 32.4622C15.3512 32.3034 13.7554 32.1447 12.1596 32.1447Z" fill="#A9A7C4"/>
<path fill-rule="evenodd" clip-rule="evenodd" d="M12 25.9536H12.1596C13.7554 25.9536 15.1916 25.7948 16.7874 25.4774C20.655 8.33958 46.3893 7.97368 49.9803 25.4774C51.4165 25.7948 53.0123 25.9536 54.6082 25.9536H54.7677C51.7428 1.88144 15.3651 2.14989 12 25.9536Z" fill="#A9A7C4"/>
<path fill-rule="evenodd" clip-rule="evenodd" d="M51.2569 28.9698C44.2353 28.0174 37.852 24.3663 33.5434 18.6515C29.2347 24.3663 22.8514 28.0174 15.8299 28.9698C22.8514 29.9223 29.3942 33.7321 33.5434 39.4469C37.852 33.7321 44.2353 29.9223 51.2569 28.9698Z" fill="#A9A7C4"/>
<path d="M72.5457 39.2071V21.257H76.8113V39.2071H72.5457ZM68.4094 21.257H80.9477V24.7287H68.4094V21.257ZM68.4094 35.7353H80.9477V39.2071H68.4094V35.7353Z" fill="#A9A7C4"/>
<path d="M91.7122 39.5156C90.1956 39.5156 88.8857 39.2156 87.7827 38.6156C86.6969 38.0155 85.8611 37.1583 85.2751 36.0439C84.7063 34.9296 84.4219 33.6009 84.4219 32.0579C84.4219 30.4806 84.7236 29.1348 85.3268 28.0204C85.9472 26.9061 86.809 26.0574 87.912 25.4745C89.015 24.8916 90.3162 24.6001 91.8157 24.6001C93.1255 24.6001 94.2802 24.8316 95.2798 25.2945C96.2967 25.7574 97.0981 26.4089 97.6841 27.2489C98.2873 28.0719 98.6148 29.0577 98.6665 30.2063H94.6335C94.4957 29.4177 94.1854 28.8348 93.7029 28.4576C93.2375 28.0633 92.6085 27.8661 91.8157 27.8661C91.1607 27.8661 90.5748 28.029 90.0577 28.3547C89.5579 28.6805 89.1615 29.1519 88.8685 29.7691C88.5928 30.3863 88.4549 31.1493 88.4549 32.0579C88.4549 33.4123 88.7651 34.4581 89.3856 35.1953C90.0232 35.9325 90.7988 36.3011 91.7122 36.3011C92.2465 36.3011 92.7119 36.2068 93.1083 36.0182C93.5219 35.8296 93.8666 35.5639 94.1424 35.221C94.4181 34.861 94.6077 34.4581 94.7111 34.0123H98.744C98.6406 35.1267 98.2787 36.0954 97.6582 36.9183C97.0378 37.7412 96.2191 38.3841 95.2023 38.847C94.1854 39.2928 93.0221 39.5156 91.7122 39.5156Z" fill="#A9A7C4"/>
<path d="M108.319 39.5156C106.786 39.5156 105.467 39.2156 104.364 38.6156C103.261 38.0155 102.408 37.1583 101.805 36.0439C101.219 34.9296 100.926 33.6009 100.926 32.0579C100.926 30.4978 101.219 29.1691 101.805 28.0719C102.408 26.9575 103.261 26.1003 104.364 25.5002C105.467 24.9002 106.786 24.6001 108.319 24.6001C110.629 24.6001 112.43 25.2602 113.723 26.5803C115.032 27.9004 115.687 29.7263 115.687 32.0579C115.687 33.6009 115.394 34.9296 114.808 36.0439C114.222 37.1583 113.378 38.0155 112.275 38.6156C111.172 39.2156 109.853 39.5156 108.319 39.5156ZM108.319 36.2754C109.354 36.2754 110.164 35.8982 110.75 35.1439C111.353 34.3895 111.654 33.3609 111.654 32.0579C111.654 30.7378 111.353 29.7091 110.75 28.9719C110.164 28.2176 109.354 27.8404 108.319 27.8404C107.268 27.8404 106.441 28.2176 105.838 28.9719C105.252 29.7091 104.959 30.7378 104.959 32.0579C104.959 33.3609 105.252 34.3895 105.838 35.1439C106.441 35.8982 107.268 36.2754 108.319 36.2754Z" fill="#A9A7C4"/>
<path d="M127.951 39.2071V30.3863C127.951 29.6491 127.762 29.0577 127.383 28.6119C127.003 28.1662 126.504 27.9433 125.883 27.9433C125.176 27.9433 124.522 28.1833 123.918 28.6633C123.332 29.1262 122.712 29.932 122.057 31.0807L121.488 27.6861C122.143 26.5717 122.936 25.7831 123.867 25.3202C124.797 24.8402 125.745 24.6001 126.71 24.6001C127.813 24.6001 128.753 24.8316 129.528 25.2945C130.321 25.7574 130.924 26.4003 131.338 27.2232C131.769 28.0461 131.984 29.0148 131.984 30.1292V39.2071H127.951ZM118.36 39.2071V24.9087H122.264L122.393 27.4547V39.2071H118.36Z" fill="#A9A7C4"/>
<path d="M139.931 39.2071V24.9087H143.964V39.2071H139.931ZM135.278 39.2071V35.9668H148.669V39.2071H135.278ZM137.087 28.149V24.9087H141.947V28.149H137.087ZM139.776 23.0057V19.2511H144.067V23.0057H139.776Z" fill="#A9A7C4"/>
<path d="M158.968 39.5156C157.452 39.5156 156.142 39.2156 155.039 38.6156C153.953 38.0155 153.117 37.1583 152.531 36.0439C151.962 34.9296 151.678 33.6009 151.678 32.0579C151.678 30.4806 151.98 29.1348 152.583 28.0204C153.203 26.9061 154.065 26.0574 155.168 25.4745C156.271 24.8916 157.572 24.6001 159.072 24.6001C160.381 24.6001 161.536 24.8316 162.536 25.2945C163.553 25.7574 164.354 26.4089 164.94 27.2489C165.543 28.0719 165.871 29.0577 165.922 30.2063H161.89C161.752 29.4177 161.441 28.8348 160.959 28.4576C160.493 28.0633 159.864 27.8661 159.072 27.8661C158.417 27.8661 157.831 28.029 157.314 28.3547C156.814 28.6805 156.417 29.1519 156.124 29.7691C155.849 30.3863 155.711 31.1493 155.711 32.0579C155.711 33.4123 156.021 34.4581 156.642 35.1953C157.279 35.9325 158.055 36.3011 158.968 36.3011C159.502 36.3011 159.968 36.2068 160.364 36.0182C160.778 35.8296 161.123 35.5639 161.398 35.221C161.674 34.861 161.864 34.4581 161.967 34.0123H166C165.897 35.1267 165.535 36.0954 164.914 36.9183C164.294 37.7412 163.475 38.3841 162.458 38.847C161.441 39.2928 160.278 39.5156 158.968 39.5156Z" fill="#A9A7C4"/>
</svg>
