<svg width="130" height="48" viewBox="0 0 130 48" fill="none" xmlns="http://www.w3.org/2000/svg">
<g clip-path="url(#clip0_195_440)">
<path fill-rule="evenodd" clip-rule="evenodd" d="M13.5013 30.0627C11.4995 28.0785 11.4996 24.8615 13.5014 22.8773L18.9384 17.4882C20.6306 15.8108 23.2117 15.5514 25.1789 16.7099C25.7873 17.0683 25.782 17.8903 25.2815 18.3863C24.7811 18.8824 23.9642 18.8397 23.2849 18.6428C22.415 18.3906 21.4368 18.6045 20.7507 19.2845L15.3137 24.6737C14.3128 25.6658 14.3128 27.2743 15.3137 28.2664C16.3146 29.2585 17.9374 29.2585 18.9383 28.2664L29.8123 17.4882C31.8141 15.504 35.0597 15.504 37.0615 17.4882L42.4986 22.8773C44.5005 24.8615 44.5005 28.0786 42.4986 30.0627C40.4967 32.047 37.2511 32.047 35.2493 30.0627L33.437 28.2664L31.1716 30.5118C29.4793 32.1892 26.8983 32.4486 24.9311 31.2901C24.3226 30.9317 24.328 30.1097 24.8284 29.6137C25.3289 29.1176 26.1458 29.1603 26.8251 29.3572C27.695 29.6094 28.6732 29.3955 29.3592 28.7155L31.6894 26.4058C32.6545 25.4492 34.2194 25.4492 35.1846 26.4058L37.0617 28.2664C38.0626 29.2585 39.6853 29.2585 40.6863 28.2664C41.6871 27.2743 41.6871 25.6658 40.6863 24.6737L35.2492 19.2846C34.2483 18.2925 32.6255 18.2925 31.6246 19.2846L20.7507 30.0628C18.7488 32.047 15.5031 32.047 13.5013 30.0627Z" fill="#A9A7C4"/>
<path d="M67.5973 17C65.7953 17 64.4304 17.6364 63.5294 18.9091C62.7379 17.6364 61.4818 17 59.8167 17C58.0967 17 56.841 17.5833 56.022 18.7765V17.3712H52.5V30.6288H56.022V23.178C56.022 21.2424 57.0321 20.1818 58.588 20.1818C60.0349 20.1818 60.8813 21.1099 60.8813 22.7007V30.6288H64.403V23.178C64.403 21.2424 65.3314 20.1818 66.9419 20.1818C68.3888 20.1818 69.2352 21.1099 69.2352 22.7007V30.6288H72.7568V22.4621C72.7568 19.1477 70.7366 17 67.5973 17Z" fill="#A9A7C4"/>
<path d="M85.8492 18.9356C84.7845 17.6364 83.3102 17 81.3991 17C79.57 17 78.0141 17.6894 76.7038 19.0417C75.4205 20.3939 74.7652 22.0379 74.7652 24C74.7652 25.9621 75.4205 27.6326 76.7038 28.9849C78.0141 30.3371 79.57 31 81.3991 31C83.3102 31 84.7845 30.3636 85.8492 29.0644V30.6288H89.3708V17.3712H85.8492V18.9356ZM79.3518 26.7046C78.6419 25.9886 78.2872 25.0871 78.2872 24C78.2872 22.9129 78.6419 22.0114 79.3518 21.322C80.0613 20.6061 80.9623 20.2614 82.0544 20.2614C83.1465 20.2614 84.0475 20.6061 84.757 21.322C85.4944 22.0114 85.8492 22.9129 85.8492 24C85.8492 25.0871 85.4944 25.9886 84.757 26.7046C84.0475 27.3939 83.1465 27.7386 82.0544 27.7386C80.9623 27.7386 80.0613 27.3939 79.3518 26.7046Z" fill="#A9A7C4"/>
<path d="M102.365 19.6515V17.3712H92.1275V20.5795H97.6151L91.8548 28.3485V30.6288H102.638V27.4204H96.5776L102.365 19.6515Z" fill="#A9A7C4"/>
<path d="M117.363 25.4053C117.445 24.9015 117.5 24.4507 117.5 24C117.5 22.0114 116.845 20.3674 115.534 19.0151C114.252 17.6629 112.586 17 110.593 17C108.491 17 106.744 17.6629 105.406 19.0151C104.068 20.3409 103.386 22.0114 103.386 24C103.386 26.0152 104.068 27.6856 105.433 29.0114C106.798 30.3371 108.6 31 110.866 31C113.487 31 115.48 30.0454 116.818 28.1629L113.978 26.572C113.296 27.447 112.258 27.8977 110.921 27.8977C108.818 27.8977 107.536 27.0757 107.071 25.4053H117.363ZM107.017 22.7538C107.426 21.0568 108.709 20.0757 110.593 20.0757C112.204 20.0757 113.569 20.9507 113.978 22.7538H107.017Z" fill="#A9A7C4"/>
</g>
<defs>
<clipPath id="clip0_195_440">
<rect width="105.5" height="32" fill="white" transform="translate(12 8)"/>
</clipPath>
</defs>
</svg>
