<svg width="184" height="58" viewBox="0 0 184 58" fill="none" xmlns="http://www.w3.org/2000/svg">
<path d="M42.9158 50L33.3159 40.4327L45.1942 16.9193L21.4377 28.5948L12 19.1891L54.143 8L42.9158 50Z" fill="#A9A7C4"/>
<path fill-rule="evenodd" clip-rule="evenodd" d="M45.1942 16.9193L33.3159 40.4327L21.4377 40.4326V28.5948L45.1942 16.9193Z" fill="#1A1733"/>
<path d="M76.327 38.8146C75.0144 38.8146 73.7917 38.5816 72.6589 38.1157C71.5441 37.6318 70.5641 36.9688 69.719 36.1266C68.8739 35.2843 68.2086 34.2987 67.7231 33.1698C67.2556 32.0229 67.0219 30.7864 67.0219 29.4603C67.0219 28.1522 67.2556 26.9426 67.7231 25.8315C68.2086 24.7026 68.8739 23.717 69.719 22.8747C70.5641 22.0325 71.5441 21.3784 72.6589 20.9125C73.7917 20.4286 75.0144 20.1867 76.327 20.1867C77.6396 20.1867 78.8534 20.4286 79.9682 20.9125C81.083 21.3784 82.063 22.0325 82.9081 22.8747C83.7532 23.717 84.4095 24.7026 84.877 25.8315C85.3445 26.9426 85.5783 28.1522 85.5783 29.4603C85.5783 30.7864 85.3445 32.0229 84.877 33.1698C84.4095 34.2987 83.7532 35.2843 82.9081 36.1266C82.063 36.9688 81.083 37.6318 79.9682 38.1157C78.8534 38.5816 77.6396 38.8146 76.327 38.8146ZM76.327 36.2072C77.2081 36.2072 78.0352 36.037 78.8084 35.6965C79.5996 35.3381 80.2918 34.8542 80.8852 34.245C81.4786 33.6357 81.9371 32.9278 82.2608 32.1214C82.5844 31.2971 82.7462 30.4101 82.7462 29.4603C82.7462 28.5285 82.5844 27.6594 82.2608 26.853C81.9371 26.0466 81.4786 25.3387 80.8852 24.7294C80.2918 24.1202 79.6086 23.6453 78.8354 23.3048C78.0622 22.9643 77.2261 22.7941 76.327 22.7941C75.428 22.7941 74.5829 22.9643 73.7917 23.3048C73.0005 23.6453 72.3083 24.1202 71.7149 24.7294C71.1395 25.3387 70.681 26.0466 70.3394 26.853C70.0157 27.6594 69.8539 28.5285 69.8539 29.4603C69.8539 30.4101 70.0157 31.2971 70.3394 32.1214C70.681 32.9278 71.1395 33.6357 71.7149 34.245C72.3083 34.8542 73.0005 35.3381 73.7917 35.6965C74.5829 36.037 75.428 36.2072 76.327 36.2072Z" fill="#A9A7C4"/>
<path d="M91.2572 44.54H88.5871V31.8795C88.5871 30.5714 88.8927 29.3976 89.5041 28.3582C90.1334 27.3189 90.9785 26.5035 92.0394 25.9122C93.1003 25.3029 94.296 24.9982 95.6266 24.9982C96.9572 24.9982 98.1529 25.3118 99.2138 25.939C100.275 26.5483 101.111 27.3816 101.722 28.4389C102.334 29.4782 102.639 30.6251 102.639 31.8795C102.639 33.2056 102.343 34.3973 101.749 35.4546C101.156 36.4939 100.338 37.3182 99.2947 37.9275C98.2698 38.5189 97.0831 38.8146 95.7345 38.8146C94.6736 38.8146 93.6937 38.5637 92.7946 38.0619C91.9135 37.5602 91.2033 36.9061 90.6639 36.0997C90.1424 35.2754 89.8817 34.3794 89.8817 33.4117L91.2572 34.1106V44.54ZM95.6266 36.3147C96.4537 36.3147 97.191 36.1176 97.8383 35.7234C98.5036 35.3112 99.025 34.7736 99.4026 34.1106C99.7802 33.4296 99.969 32.6949 99.969 31.9064C99.969 31.1 99.7802 30.3653 99.4026 29.7022C99.025 29.0392 98.5036 28.5106 97.8383 28.1163C97.191 27.7221 96.4537 27.525 95.6266 27.525C94.7995 27.525 94.0533 27.7221 93.388 28.1163C92.7407 28.5106 92.2192 29.0392 91.8236 29.7022C91.446 30.3653 91.2572 31.1 91.2572 31.9064C91.2572 32.6949 91.446 33.4296 91.8236 34.1106C92.2192 34.7736 92.7407 35.3112 93.388 35.7234C94.0533 36.1176 94.7995 36.3147 95.6266 36.3147Z" fill="#A9A7C4"/>
<path d="M111.67 38.8414C110.591 38.8414 109.674 38.6264 108.919 38.1963C108.163 37.7662 107.588 37.1749 107.192 36.4222C106.815 35.6517 106.626 34.7646 106.626 33.7611V21.907H109.296V33.6805C109.296 34.5406 109.53 35.2126 109.997 35.6965C110.483 36.1803 111.121 36.4222 111.912 36.4222C112.344 36.4222 112.775 36.3506 113.207 36.2072C113.657 36.0638 114.043 35.8757 114.367 35.6427V38.0888C114.025 38.3038 113.612 38.483 113.126 38.6264C112.641 38.7698 112.155 38.8414 111.67 38.8414ZM114.367 27.6325H104.01V25.3208H114.367V27.6325Z" fill="#A9A7C4"/>
<path d="M118.337 25.3208H121.007V38.492H118.337V25.3208ZM119.658 22.7134C119.353 22.7134 119.065 22.6418 118.795 22.4984C118.526 22.3371 118.31 22.1221 118.148 21.8533C117.986 21.5845 117.905 21.2888 117.905 20.9662C117.905 20.6437 117.986 20.348 118.148 20.0792C118.31 19.8104 118.526 19.5954 118.795 19.4341C119.065 19.2728 119.353 19.1922 119.658 19.1922C119.982 19.1922 120.27 19.2728 120.522 19.4341C120.791 19.5954 120.998 19.8104 121.142 20.0792C121.304 20.348 121.385 20.6437 121.385 20.9662C121.385 21.2888 121.304 21.5845 121.142 21.8533C120.998 22.1221 120.791 22.3371 120.522 22.4984C120.27 22.6418 119.982 22.7134 119.658 22.7134Z" fill="#A9A7C4"/>
<path d="M141.755 24.9445C143.086 24.9445 144.201 25.2402 145.1 25.8315C146.017 26.4229 146.709 27.2203 147.177 28.2238C147.662 29.2274 147.905 30.3384 147.905 31.557V38.492H145.235V31.987C145.235 31.1806 145.1 30.437 144.83 29.756C144.578 29.075 144.174 28.5285 143.617 28.1163C143.077 27.7042 142.394 27.4981 141.567 27.4981C140.775 27.4981 140.11 27.7042 139.571 28.1163C139.031 28.5106 138.627 29.0482 138.357 29.7291C138.087 30.3922 137.952 31.1269 137.952 31.9333V38.492H135.282V31.9333C135.282 31.1269 135.147 30.3922 134.878 29.7291C134.626 29.0482 134.221 28.5106 133.664 28.1163C133.125 27.7042 132.441 27.4981 131.614 27.4981C130.787 27.4981 130.104 27.7042 129.564 28.1163C129.043 28.5285 128.656 29.075 128.405 29.756C128.153 30.437 128.027 31.1806 128.027 31.987V38.492H125.357V31.5838C125.357 30.3474 125.582 29.2274 126.031 28.2238C126.499 27.2203 127.182 26.4229 128.081 25.8315C128.998 25.2402 130.113 24.9445 131.425 24.9445C132.54 24.9445 133.502 25.1595 134.311 25.5896C135.138 26.0197 135.777 26.611 136.226 27.3637C136.694 28.1163 136.937 28.9854 136.955 29.971H136.361C136.397 28.9854 136.64 28.1163 137.089 27.3637C137.557 26.611 138.186 26.0197 138.977 25.5896C139.787 25.1595 140.713 24.9445 141.755 24.9445Z" fill="#A9A7C4"/>
<path d="M157.521 38.8146C156.245 38.8146 155.103 38.501 154.096 37.8738C153.107 37.2466 152.325 36.4133 151.749 35.3739C151.174 34.3166 150.886 33.1518 150.886 31.8795C150.886 30.6251 151.192 29.4782 151.803 28.4389C152.433 27.3816 153.278 26.5483 154.339 25.939C155.4 25.3118 156.595 24.9982 157.926 24.9982C159.257 24.9982 160.452 25.3029 161.513 25.9122C162.574 26.5035 163.41 27.3189 164.021 28.3582C164.651 29.3976 164.965 30.5714 164.965 31.8795V38.492H162.43V33.573L163.347 32.8741C163.347 33.9851 163.095 34.9886 162.592 35.8846C162.107 36.7806 161.423 37.4974 160.542 38.035C159.679 38.5547 158.672 38.8146 157.521 38.8146ZM157.926 36.2878C158.753 36.2878 159.499 36.0907 160.165 35.6965C160.83 35.3022 161.351 34.7736 161.729 34.1106C162.107 33.4296 162.295 32.6949 162.295 31.9064C162.295 31.1 162.107 30.3653 161.729 29.7022C161.351 29.0392 160.83 28.5106 160.165 28.1163C159.499 27.7042 158.753 27.4981 157.926 27.4981C157.099 27.4981 156.353 27.7042 155.687 28.1163C155.04 28.5106 154.519 29.0392 154.123 29.7022C153.745 30.3653 153.557 31.1 153.557 31.9064C153.557 32.6949 153.745 33.4296 154.123 34.1106C154.519 34.7736 155.04 35.3022 155.687 35.6965C156.353 36.0907 157.099 36.2878 157.926 36.2878Z" fill="#A9A7C4"/>
<path d="M169.33 19.2728H172V38.492H169.33V19.2728Z" fill="#A9A7C4"/>
</svg>
