<svg width="134" height="42" viewBox="0 0 134 42" fill="none" xmlns="http://www.w3.org/2000/svg">
<path d="M27.5413 12.0321C34.9533 12.083 41.057 18.247 40.9546 25.5816C40.8579 32.8879 34.777 38.8653 27.4332 38.8822C20.061 38.8992 13.9062 32.7295 13.9574 25.3836C14.0086 17.9642 20.0952 11.9868 27.5413 12.0321ZM37.7236 25.4685C37.7349 19.7682 33.0932 15.1424 27.3877 15.165C21.7903 15.1876 17.1827 19.7852 17.1258 25.4063C17.0632 30.9539 21.7391 35.6532 27.3251 35.6702C33.1216 35.6928 37.7122 31.1914 37.7236 25.4685Z" fill="#A9A7C4"/>
<path d="M18.9174 41.0424C11.2381 39.3968 5.31645 31.6494 5.07754 23.4779C4.82725 15.0123 10.6294 7.19137 18.8719 4.8728C26.4205 2.75216 35.6243 5.81719 38.8553 11.6419C30.2454 3.67594 16.6347 4.8114 10.2767 14.9614C5.52692 22.5448 6.72717 35.0029 18.9174 41.0424Z" fill="#A9A7C4"/>
<path d="M15.7862 42C7.03185 40.124 0.281245 31.292 0.0088862 21.9766C-0.276442 12.3259 6.33798 3.41013 15.7344 0.766987C24.3396 -1.65052 34.8319 1.84358 38.5152 8.48367C28.7 -0.597425 13.184 0.696988 5.93593 12.2679C0.52118 20.9129 1.88946 35.1149 15.7862 42Z" fill="#A9A7C4"/>
<path d="M38.5425 14.6108C29.9644 7.04438 19.5717 10.2225 15.1404 16.3582C12.2621 20.3507 11.4259 24.7447 12.6716 29.4553C13.9003 34.0868 16.9493 37.3102 21.6423 39.6287C15.2712 38.5203 10.1403 32.2432 9.54301 25.3724C8.93435 18.3092 13.5533 11.3592 20.4477 8.97274C27.0861 6.67114 34.8678 9.06323 38.5425 14.6108Z" fill="#A9A7C4"/>
<path d="M27.456 30.575C30.2992 30.575 32.604 28.2836 32.604 25.4572C32.604 22.6307 30.2992 20.3393 27.456 20.3393C24.6129 20.3393 22.308 22.6307 22.308 25.4572C22.308 28.2836 24.6129 30.575 27.456 30.575Z" fill="#A9A7C4"/>
<path d="M62.4999 30.8616C56.9552 30.8616 54.542 28.3198 54.542 24.6355V24.15H57.5873V24.4642C57.5873 26.8346 58.5928 28.0342 62.6148 28.0342C65.4589 28.0342 66.4931 27.263 66.4931 25.4923C66.4931 23.7502 65.9185 23.1218 62.9595 22.5221L59.6845 21.8652C56.3807 21.2369 54.5995 19.6375 54.5995 16.6102C54.5995 13.7827 56.8116 11.1552 61.7816 11.1552C67.0964 11.1552 69.2223 14.1254 69.2223 17.5241V17.8668H66.1771V17.5526C66.1771 15.2107 65.1429 13.9826 61.6954 13.9826C58.8513 13.9826 57.7022 14.7823 57.7022 16.4674C57.7022 18.2095 58.4779 18.695 61.1209 19.2662L64.3959 19.9517C68.0157 20.6942 69.5958 22.4935 69.5958 25.3781C69.5958 28.3769 67.4124 30.8616 62.4999 30.8616Z" fill="#A9A7C4"/>
<path d="M74.8679 14.5824H71.794L71.7653 11.4408H74.8679V14.5824ZM74.8967 30.576H71.794V16.296H74.8967V30.576Z" fill="#A9A7C4"/>
<path d="M83.15 29.2337C79.2142 29.2337 77.0309 26.6633 77.0309 22.6649C77.0309 18.6665 79.243 16.0961 83.265 16.0961C85.5632 16.0961 87.3444 17.0671 88.0339 18.7236H88.1488V16.3817H90.9929V29.5478C90.9929 33.7462 88.5223 35.7168 84.3567 35.7168C80.3059 35.7168 77.7778 33.8033 77.7778 30.3761H80.8518C80.8518 32.3182 81.57 32.975 84.4428 32.975C87.2295 32.975 87.919 32.1754 87.919 29.5478V26.7204H87.8041C87.1433 28.0913 85.4771 29.2337 83.15 29.2337ZM80.1336 22.6649C80.1336 25.578 81.3402 26.6062 84.0406 26.6062C86.3676 26.6062 87.919 25.4923 87.919 23.0933V22.2079C87.919 19.8374 86.3676 18.7236 83.9832 18.7236C81.3114 18.7236 80.1336 19.7518 80.1336 22.6649Z" fill="#A9A7C4"/>
<path d="M97.1485 30.576H94.0458V16.3817H96.8899V19.0378H97.0048C97.6656 17.5241 99.1882 16.0961 101.975 16.0961C105.681 16.0961 107.347 18.438 107.347 21.6653V30.576H104.244V22.3507C104.244 19.8089 103.44 18.7522 100.826 18.7522C98.2976 18.7522 97.1485 19.7232 97.1485 22.3793V30.576Z" fill="#A9A7C4"/>
<path d="M116.611 30.8616C111.899 30.8616 109.687 27.8914 109.687 23.4646C109.687 19.0663 112.33 16.0961 116.582 16.0961C120.432 16.0961 123.132 18.3809 123.132 22.265C123.132 23.0076 123.046 23.7787 122.96 24.2071H112.589C112.704 26.8061 113.652 28.1198 116.639 28.1198C119.024 28.1198 119.943 27.3202 119.943 26.035V25.8065H123.017V26.0635C123.017 28.9766 120.46 30.8616 116.611 30.8616ZM116.525 18.695C113.824 18.695 112.79 19.9517 112.617 22.1508H120.173C120.288 19.7232 118.966 18.695 116.525 18.695Z" fill="#A9A7C4"/>
<path d="M131.443 30.576C128.254 30.576 126.588 29.405 126.588 26.2063V18.9521H124.204V16.3817H126.646L127.306 12.8688H129.691V16.3817H134V18.9521H129.691V26.0635C129.691 27.5486 130.323 27.8057 132.248 27.8057H134V30.319C133.397 30.4618 132.42 30.576 131.443 30.576Z" fill="#A9A7C4"/>
</svg>
