<svg width="143" height="41" viewBox="0 0 143 41" fill="none" xmlns="http://www.w3.org/2000/svg">
<path fill-rule="evenodd" clip-rule="evenodd" d="M130.287 7.95039C135.91 4.35039 142.975 3.65039 142.975 3.65039C142.975 3.65039 135.512 12.2504 133.671 16.2004C133.123 17.9504 134.268 19.3504 134.268 19.3504C134.268 19.3504 130.984 15.6504 130.287 7.95039Z" fill="#A9A7C4"/>
<path fill-rule="evenodd" clip-rule="evenodd" d="M132.725 6.59961C131.879 6.99961 131.083 7.44961 130.287 7.94961C130.635 11.8496 131.68 14.6996 132.576 16.5996C133.073 17.4996 133.521 18.1996 133.87 18.7496C133.671 18.3996 133.521 17.8996 133.472 17.3496C133.024 15.4996 132.576 12.2496 132.725 6.59961Z" fill="#A9A7C4"/>
<path fill-rule="evenodd" clip-rule="evenodd" d="M125.26 11.3C125.26 11.3 124.912 10 124.762 9.6C124.414 8.6 124.066 7.55 124.066 5.8C124.066 3.4 128.146 0.8 130.683 0C129.987 8.8 130.982 11.5 131.878 14.4C134.017 21.6 138.943 22.65 139.391 23.15C138.147 22.9 138.844 23.45 138.844 23.45C138.844 23.45 136.853 22.05 132.823 20.9C128.793 19.75 125.658 19.6 123.767 18.5C122.275 17.4 122.225 16.5 121.528 15.85C119.239 13.85 113.418 13 113.418 13L118.394 13.8C118.394 13.8 119.09 13.8 119.886 13.5C120.085 13.5 120.633 12.85 121.827 13.25C122.324 13.4 122.175 13.6 123.618 14C125.459 14.55 125.26 11.3 125.26 11.3Z" fill="#A9A7C4"/>
<path fill-rule="evenodd" clip-rule="evenodd" d="M1.99026 26.5004C1.99026 31.6504 5.87126 32.2504 7.86152 32.2504C8.45859 32.2504 8.9064 32.2004 8.9064 32.2004V29.6004C8.9064 29.6004 8.65762 29.6504 8.20981 29.6504C7.06541 29.6504 4.92589 29.2504 4.92589 26.2004V19.3004H8.60786V16.9004H4.92589V12.5004H2.08977V16.9504H0V19.3504H1.99026V26.5004ZM11.5932 32.1504H14.5289V25.8504C14.5289 24.9004 14.6284 23.9504 14.8772 23.1004C15.5738 20.8004 17.3152 19.5004 19.1562 19.5004C19.604 19.5004 20.0021 19.6004 20.0021 19.6004V16.7004C20.0021 16.7004 19.6538 16.6504 19.2557 16.6504C16.9172 16.6504 15.126 18.4004 14.4294 20.6504H14.3796C14.3796 20.6504 14.4294 20.1504 14.4294 19.5004V16.8004H11.5932V32.1504ZM21.047 27.8004C21.047 30.9004 23.6343 32.5004 26.2714 32.5004C29.9534 32.5004 31.1973 29.4504 31.1973 29.4504H31.247C31.247 29.4504 31.1973 29.9504 31.1973 30.6504V32.1004H33.9339V22.4004C33.9339 18.5004 31.7446 16.3504 27.8636 16.3504C24.3309 16.3504 22.1416 18.2004 22.1416 18.2004L23.3358 20.3504C23.3358 20.3504 25.2265 18.8504 27.6148 18.8504C29.5553 18.8504 30.9983 19.7004 30.9983 22.2504V22.5004H30.3514C27.7143 22.5004 21.047 22.7004 21.047 27.8004ZM23.9826 27.6504C23.9826 24.9004 27.9631 24.7504 30.2022 24.7504H30.9485V25.2504C30.9485 27.5504 29.3563 30.1504 26.8685 30.1504C24.9777 30.1004 23.9826 28.9004 23.9826 27.6504ZM41.2978 32.1504H44.6813L50.3535 16.7504H47.2686L43.5369 27.1504C43.2383 28.0004 43.0393 29.2504 42.9896 29.2504H42.9398C42.89 29.2504 42.7408 28.0004 42.4422 27.1504L38.7105 16.7504H35.5759L41.2978 32.1504ZM51.0999 24.4504C51.0999 29.0004 54.3838 32.5004 59.2102 32.5004C62.8921 32.5004 65.1312 30.3004 65.1312 30.3004L63.937 28.1504C63.937 28.1504 62.0463 29.9504 59.4092 29.9504C56.6726 29.9504 54.2843 28.2504 54.135 24.8504H65.2804C65.2804 24.8504 65.38 23.9504 65.38 23.5504C65.38 19.5504 63.0912 16.3504 58.7624 16.3504C54.4335 16.3504 51.0999 19.5504 51.0999 24.4504ZM54.2345 22.6504C54.6823 20.1004 56.4736 18.7004 58.7126 18.7004C60.7029 18.7004 62.2951 20.0004 62.3946 22.6504H54.2345ZM68.1166 27.9504C68.1166 31.8004 70.5546 32.2504 72.2463 32.2504C72.7439 32.2504 73.1917 32.2004 73.1917 32.2004V29.6004C73.1917 29.6004 72.9429 29.6504 72.6942 29.6504C71.7985 29.6504 71.0522 29.3004 71.0522 27.4504V10.6504H68.1166V27.9504ZM74.5351 24.4004C74.5351 29.1004 78.2171 32.5004 82.7947 32.5004C87.3723 32.5004 91.0543 29.1004 91.0543 24.4004C91.0543 19.7504 87.3723 16.3504 82.7947 16.3504C78.2171 16.3504 74.5351 19.7504 74.5351 24.4004ZM77.5205 24.4004C77.5205 21.2004 79.9088 18.9004 82.7947 18.9004C85.6806 18.9004 88.0689 21.2004 88.0689 24.4004C88.0689 27.6504 85.7303 29.9504 82.7947 29.9504C79.9088 29.9504 77.5205 27.6504 77.5205 24.4004ZM93.9402 32.1504H96.8758V24.9004H99.0651L103.643 32.1504H107.076L101.404 23.6004V23.5004L106.479 16.7004H103.145L99.0153 22.4004H96.8758V10.6504H93.9402V32.1504ZM107.922 27.8004C107.922 30.9004 110.509 32.5004 113.146 32.5004C116.828 32.5004 118.072 29.4504 118.072 29.4504H118.122C118.122 29.4504 118.072 29.9504 118.072 30.6504V32.1004H120.809V22.4004C120.809 18.5004 118.619 16.3504 114.738 16.3504C111.206 16.3504 109.016 18.2004 109.016 18.2004L110.211 20.3504C110.211 20.3504 112.101 18.8504 114.49 18.8504C116.43 18.8504 117.873 19.7004 117.873 22.2504V22.5004H117.226C114.589 22.5004 107.922 22.7004 107.922 27.8004ZM110.907 27.6504C110.907 24.9004 114.888 24.7504 117.127 24.7504H117.873V25.2504C117.873 27.5504 116.281 30.1504 113.793 30.1504C111.852 30.1004 110.907 28.9004 110.907 27.6504Z" fill="#A9A7C4"/>
</svg>
