<svg width="177" height="58" viewBox="0 0 177 58" fill="none" xmlns="http://www.w3.org/2000/svg">
<path fill-rule="evenodd" clip-rule="evenodd" d="M28.9004 8C25.0037 8 21.4613 9.42373 18.6273 11.5593L37.9337 34.8729L53.6976 22.9492C52.9891 14.5847 45.9042 8 37.2252 8" fill="#A9A7C4"/>
<path fill-rule="evenodd" clip-rule="evenodd" d="M37.2254 50C47.0008 50 53.875 41.8205 53.875 32.3814L39.528 43.0593C37.9339 44.3051 35.6313 43.9492 34.3915 42.5254L13.8452 17.6102C11.4466 22.4302 12.074 27.8717 12.074 33.0932C12.074 42.3475 19.5132 49.822 28.7235 49.822" fill="#A9A7C4"/>
<path d="M74.3063 20.5362L74.6691 20.8486C74.8246 22.6194 74.8765 24.4682 74.8765 26.2389C74.8765 29.8324 74.41 33.5041 74.0731 35.9258L74.721 35.9518C77.2608 33.3999 79.6192 29.3116 79.6192 26.317C79.6192 23.9214 78.6344 22.3329 77.6755 21.3174L77.7273 20.9788C79.3082 20.6664 81.0446 20.5622 82.3145 20.5362C82.8588 20.9528 83.1957 21.5257 83.1957 22.5933C83.1957 23.3224 83.0143 24.2078 82.6515 25.3796C81.5889 28.8429 75.2652 37.1497 72.2071 39.0766C70.8853 38.9725 69.6154 38.5558 68.6565 38.009C68.9416 34.7019 69.1489 31.2646 69.1489 28.0617C69.1489 26.2129 69.0452 24.5203 68.9157 23.1141L66.5832 21.2653L66.635 20.9268C68.4492 20.7445 72.4921 20.5362 74.3063 20.5362Z" fill="#A9A7C4"/>
<path d="M87.9044 22.7235C86.8937 22.7235 86.1421 22.0725 86.1421 21.1611C86.1421 19.781 87.4898 18.9477 88.6042 18.9477C89.6149 18.9477 90.3406 19.5987 90.3406 20.4841C90.3406 21.8902 89.0188 22.7235 87.9044 22.7235ZM91.9474 35.7175C90.7034 37.1236 88.1636 39.0766 85.9866 39.0766C84.1465 39.0766 82.7211 38.1132 82.7211 36.1602C82.7211 35.2227 83.0839 33.9728 83.5504 32.4885C84.0169 31.0303 84.5093 29.3898 84.8463 27.4888L83.8614 26.0046L83.9392 25.614C86.2717 25.3536 88.2413 25.2494 90.1592 25.2234L90.522 25.4838C90.522 26.5254 90.211 28.7388 89.589 30.9522C88.9152 33.3478 87.8008 35.9779 87.8008 37.3059C87.8008 37.5403 87.8267 37.8267 87.9044 37.9309C89.0966 37.4101 90.9108 36.1081 91.8697 35.0404L91.9474 35.1186V35.7175Z" fill="#A9A7C4"/>
<path d="M102.72 34.9363C102.72 37.9048 99.6876 39.0766 97.1737 39.0766C94.4265 39.0766 91.5757 38.2173 90.6168 36.8893C91.1092 35.6914 91.9385 34.6238 92.7937 33.7384H93.0529C93.649 35.2748 95.1262 38.4517 96.8108 38.4517C97.5883 38.4517 98.2881 37.983 98.2881 37.0195C98.2881 35.6654 97.3292 35.2227 96.0852 34.4415C94.0377 33.1656 92.716 32.2542 92.716 30.3793C92.716 26.6035 97.2255 25.2234 100.206 25.2234C102.979 25.2234 104.819 26.2389 104.819 27.8794C104.819 28.895 104.223 29.52 103.368 29.9626C102.072 30.1189 100.802 30.1449 99.5061 30.1449L99.4284 29.8845C100.05 29.1814 100.672 28.5044 100.672 27.8274C100.672 27.0722 99.8949 26.0566 98.8582 26.0566C98.0548 26.0566 97.2514 26.6035 97.2514 27.9576C97.2514 29.3116 98.1067 30.0928 99.3506 30.874C101.398 32.15 102.72 33.0614 102.72 34.9363Z" fill="#A9A7C4"/>
<path d="M123.703 35.7175C122.459 37.1236 119.4 39.0766 117.223 39.0766C115.383 39.0766 114.373 38.1132 114.373 36.4206C114.373 35.0144 115.124 32.6708 116.213 30.5095L115.798 30.3793C115.72 30.5355 115.306 31.473 115.202 31.6813C113.543 35.3008 111.807 39.0766 108.204 39.0766C106.157 39.0766 105.094 37.8528 105.094 36.1602C105.094 35.2488 105.742 33.5562 106.364 31.8115C107.012 30.0668 107.66 28.2961 107.66 27.2024C107.66 26.8118 107.505 26.7076 107.271 26.7076C106.857 26.7076 106.235 26.942 105.716 27.2545L105.639 27.2024L105.742 26.5254C106.909 25.9004 108.515 25.2234 109.941 25.2234C111.91 25.2234 112.792 26.2389 112.792 27.9315C112.792 28.869 112.247 30.6397 111.703 32.3062C111.159 33.9988 110.615 35.5873 110.615 36.1862C110.615 36.6549 110.874 36.8112 111.159 36.8112C111.729 36.8112 112.558 35.7175 113.517 33.8426C114.58 31.7854 115.85 28.7908 117.223 25.2234C119.063 25.3536 121.163 26.265 121.914 26.9941C121.914 28.8169 119.063 34.9102 119.063 37.5403C119.063 37.6965 119.089 37.8528 119.141 37.9309C121.292 37.0455 122.718 35.9518 123.625 34.9884L123.703 35.0665V35.7175Z" fill="#A9A7C4"/>
<path d="M140.905 35.4571C139.661 36.8632 136.344 39.0766 134.167 39.0766C132.327 39.0766 131.316 38.1132 131.316 36.4206C131.316 35.4571 131.679 34.5717 133.001 32.2281L132.12 32.3062C131.083 34.8061 129.269 39.0766 126.392 39.0766C124.319 39.0766 122.842 36.9934 122.842 34.077C122.842 28.8429 125.692 25.2234 129.813 25.2234C131.187 25.2234 132.249 25.7962 132.923 26.968L132.664 27.619C132.094 26.8639 131.446 26.0566 130.617 26.0566C129.45 26.0566 128.44 29.6502 128.44 33.7124C128.44 35.3529 128.699 36.2643 129.191 36.2643C129.606 36.2643 130.072 35.405 131.031 33.1135C131.757 31.4209 132.742 28.9731 133.934 25.5098C135.826 25.7702 137.899 26.8118 138.78 27.8013C138.78 28.7127 138.081 30.7699 137.381 32.775C136.707 34.78 136.007 36.7591 136.007 37.5403C136.007 37.6965 136.033 37.8528 136.085 37.9309C138.236 37.0455 139.921 35.6914 140.828 34.728L140.905 34.8061V35.4571Z" fill="#A9A7C4"/>
<path d="M142.981 39.0766C140.96 39.0766 139.716 37.9569 139.716 36.1602C139.716 35.1446 139.949 34.077 140.493 32.4104L142.748 25.5098C143.344 23.687 143.603 22.6194 143.733 21.6038L142.8 19.9112L142.877 19.5206C144.925 19.2862 146.946 19.156 149.097 19.13L149.434 19.3644C149.434 20.3278 148.942 23.4787 147.568 27.8274C146.817 30.197 144.821 35.405 144.821 37.3059C144.821 37.5403 144.873 37.8267 144.899 37.9309C146.272 37.358 148.449 35.9258 149.331 34.9363L149.408 35.0144V35.6133C147.776 37.4622 144.743 39.0766 142.981 39.0766Z" fill="#A9A7C4"/>
<path d="M161.346 38.3475C159.687 42.4098 155.826 45.17 151.679 45.17C149.269 45.17 146.625 44.3888 146.34 42.0452C147.118 40.5088 148.984 38.7902 150.513 38.1132C149.269 37.7226 148.647 36.681 148.647 35.379C148.647 34.4415 149.32 32.9312 150.02 31.3948C150.694 29.8324 151.368 28.244 151.368 27.1764C151.368 26.7858 151.212 26.6816 150.979 26.6816C150.72 26.6816 150.15 26.8378 149.917 26.9941L149.839 26.942L149.942 26.3431C150.746 25.7962 152.223 25.2234 153.649 25.2234C155.618 25.2234 156.499 26.2129 156.499 27.9055C156.499 28.8429 155.903 30.4314 155.333 31.9417C154.737 33.426 154.167 34.8061 154.167 35.405C154.167 35.8737 154.426 36.03 154.711 36.03C155.126 36.03 155.748 35.3529 156.525 34.0509C157.562 32.2542 158.858 29.3377 160.154 25.4838C161.735 25.7442 164.093 26.6295 165 27.8013C164.689 28.5825 162.434 35.7175 161.346 38.3475ZM150.824 39.7797C150.824 41.941 152.016 44.2065 154.011 44.2065C154.711 44.2065 155.489 42.1233 156.292 39.5714C157.07 37.0455 157.873 34.077 158.65 32.2021L158.132 32.3062C157.769 33.0354 157.381 33.7384 156.966 34.4155C155.644 36.5508 153.985 38.2954 151.757 38.2954C151.497 38.2954 151.264 38.2694 151.031 38.2434C150.901 38.7381 150.824 39.2589 150.824 39.7797Z" fill="#A9A7C4"/>
</svg>
