<svg width="159" height="48" viewBox="0 0 159 48" fill="none" xmlns="http://www.w3.org/2000/svg">
<g clip-path="url(#clip0_195_438)">
<path d="M130.284 18.7725C131.034 18.7725 131.651 18.3827 131.734 17.879L132.474 9.50684C132.474 8.67933 131.505 8 130.286 8C129.068 8 128.1 8.67933 128.1 9.50699L128.84 17.879C128.921 18.3825 129.538 18.7725 130.286 18.7725H130.284ZM125.759 21.3875C126.135 20.739 126.107 20.01 125.71 19.6862L118.829 14.859C118.113 14.4447 117.04 14.9434 116.432 15.9993C115.821 17.0539 115.929 18.2317 116.643 18.6462L124.262 22.194C124.739 22.3705 125.388 22.0307 125.761 21.3826L125.759 21.3875ZM134.813 21.383C135.188 22.0312 135.834 22.3711 136.311 22.1944L143.931 18.6466C144.649 18.2323 144.751 17.0543 144.146 15.9998C143.534 14.9449 142.459 14.4451 141.746 14.8595L134.864 19.6867C134.47 20.01 134.441 20.7396 134.815 21.388L134.813 21.383ZM130.284 29.2306C131.034 29.2306 131.651 29.6172 131.734 30.1213L132.474 38.4923C132.474 39.3223 131.505 40.0001 130.286 40.0001C129.068 40.0001 128.1 39.3223 128.1 38.4923L128.84 30.1213C128.921 29.6172 129.538 29.2306 130.286 29.2306H130.284ZM134.813 26.615C135.188 25.9651 135.834 25.6281 136.311 25.8068L143.931 29.3522C144.649 29.767 144.751 30.946 144.146 32.0014C143.534 33.0528 142.459 33.554 141.746 33.1402L134.864 28.3175C134.47 27.9916 134.441 27.2616 134.815 26.6137H134.812M125.759 26.6141C126.135 27.2616 126.107 27.9916 125.71 28.3181L118.829 33.1407C118.113 33.5544 117.04 33.0533 116.432 32.0019C115.821 30.9464 115.929 29.7675 116.643 29.3527L124.262 25.8072C124.739 25.6286 125.388 25.9656 125.761 26.6156H125.759" fill="#A9A7C4"/>
<path d="M86.8777 28.3025C86.8777 28.5594 86.8548 28.8244 86.7845 29.0571C86.4926 30.0237 85.4918 30.8411 84.2398 30.8411C83.1959 30.8411 82.3667 30.2481 82.3667 28.9956C82.3667 27.0787 84.4766 26.5494 86.8783 26.5627L86.8777 28.3024V28.3025ZM90.6448 24.962C90.6448 21.8012 89.2942 19.02 84.7306 19.02C82.3881 19.02 80.5289 19.6779 79.5141 20.2644L80.2573 22.8054C81.1848 22.2199 82.6629 21.7352 84.0618 21.7352C86.3765 21.7288 86.7556 23.0461 86.7556 23.8891V24.0887C81.7098 24.0812 78.5201 25.8284 78.5201 29.3875C78.5201 31.5624 80.1447 33.5993 82.9687 33.5993C84.7039 33.5993 86.1573 32.9067 87.027 31.7961H87.1129C87.1129 31.7961 87.6884 34.2072 90.8657 33.2847C90.6999 32.282 90.6454 31.2116 90.6454 29.9245L90.6449 24.962M12.0254 14.7154C12.0254 14.7154 15.3227 28.2265 15.8492 30.4192C16.4635 32.9787 17.5704 33.9209 20.7605 33.2847L22.8193 24.9084C23.3413 22.8268 23.6907 21.3427 24.0271 19.2273H24.0856C24.3218 21.3651 24.6568 22.8332 25.0864 24.9153C25.0864 24.9153 25.9241 28.7182 26.3538 30.715C26.784 32.7112 27.9813 33.97 31.1064 33.2847L36.0123 14.7148H32.0525L30.3769 22.7439C29.9264 25.08 29.518 26.9076 29.2029 29.0443H29.1469C28.8605 26.9264 28.4959 25.1734 28.0384 22.8967L26.2952 14.7148H22.1688L20.3031 22.6904C19.7751 25.1147 19.28 27.0714 18.9663 29.1371H18.9092C18.5872 27.192 18.1585 24.7317 17.6946 22.3862C17.6946 22.3862 16.587 16.6813 16.1974 14.7148L12.0254 14.7154ZM43.5026 28.3025C43.5026 28.5594 43.4797 28.8244 43.4083 29.0571C43.1171 30.0237 42.1157 30.8411 40.8637 30.8411C39.8196 30.8411 38.9916 30.2481 38.9916 28.9956C38.9916 27.0787 41.1009 26.5494 43.503 26.5627L43.5026 28.3024V28.3025ZM47.2692 24.962C47.2692 21.8012 45.9186 19.02 41.356 19.02C39.0129 19.02 37.1522 19.6779 36.1379 20.2644L36.8803 22.8054C37.8076 22.2199 39.2857 21.7352 40.685 21.7352C43.0015 21.7288 43.3806 23.0461 43.3806 23.8891V24.0887C38.3326 24.0812 35.1445 25.8284 35.1445 29.3875C35.1445 31.5624 36.7681 33.5993 39.59 33.5993C41.3276 33.5993 42.7801 32.9067 43.6509 31.7961H43.7358C43.7358 31.7961 44.3129 34.2072 47.4894 33.2847C47.3233 32.282 47.2692 31.2116 47.2692 29.9245V24.962ZM53.5556 29.3429V14.7154H49.784V33.2853H53.5556V29.3429ZM102.895 14.7154V28.4141C102.895 30.3036 103.251 31.626 104.01 32.4353C104.676 33.1428 105.77 33.6008 107.081 33.6008C108.197 33.6008 109.293 33.388 109.811 33.196L109.762 30.2496C109.377 30.3437 108.935 30.4198 108.33 30.4198C107.044 30.4198 106.615 29.5965 106.615 27.901V22.6597H109.899V19.1062H106.615V14.7154H102.895ZM93.1597 19.335V33.2853H97.0503V26.1425C97.0503 25.7564 97.0736 25.42 97.1347 25.1123C97.4226 23.6153 98.5667 22.6597 100.21 22.6597C100.661 22.6597 100.983 22.7086 101.333 22.7582V19.1062C101.039 19.0477 100.84 19.0204 100.476 19.0204C99.0238 19.0204 97.3719 19.9573 96.6787 21.9669H96.5735V19.335H93.1597ZM56.1965 19.335V33.2853H59.987V25.1048C59.987 24.7209 60.0321 24.315 60.1651 23.963C60.4792 23.1394 61.2457 22.1748 62.4689 22.1748C63.9992 22.1748 64.7138 23.4679 64.7138 25.3341V33.2843H68.5014V25.0042C68.5014 24.6379 68.5514 24.1964 68.6597 23.8734C68.9707 22.936 69.7964 22.1738 70.9337 22.1738C72.4843 22.1738 73.2286 23.4441 73.2286 25.6408V33.2838H77.0187V25.067C77.0187 20.7343 74.8185 19.0191 72.3345 19.0191C71.2354 19.0191 70.367 19.2944 69.5816 19.7756C68.9221 20.1819 68.3306 20.7576 67.8146 21.5143H67.7585C67.1596 20.0109 65.7503 19.0198 63.9138 19.0198C61.5545 19.0198 60.4941 20.2158 59.8509 21.23H59.7945V19.3345H56.1965" fill="#A9A7C4"/>
<path d="M145.842 32.607H145.899C145.975 32.607 146.024 32.5757 146.024 32.5291C146.024 32.476 145.978 32.4472 145.907 32.4472C145.883 32.4472 145.858 32.4521 145.842 32.4521V32.6084V32.6069L145.842 32.607ZM145.833 32.9831H145.632V32.3267C145.677 32.3177 145.784 32.3017 145.92 32.3017C146.069 32.3017 146.135 32.3226 146.184 32.3555C146.225 32.3842 146.255 32.4332 146.255 32.4993C146.255 32.5667 146.193 32.6238 146.102 32.6487V32.6571C146.176 32.6769 146.217 32.731 146.238 32.8259C146.258 32.9206 146.271 32.9592 146.284 32.9836H146.055C146.035 32.9592 146.024 32.9011 146.01 32.8432C145.997 32.7767 145.966 32.7434 145.899 32.7434H145.833L145.833 32.9831ZM145.916 32.1128C145.627 32.1128 145.409 32.3485 145.409 32.649C145.409 32.9418 145.628 33.1806 145.924 33.1806C146.222 33.1855 146.441 32.9419 146.441 32.6442C146.441 32.3479 146.222 32.1128 145.921 32.1128H145.916ZM145.929 31.9346C146.333 31.9346 146.654 32.2521 146.654 32.6441C146.654 33.0407 146.333 33.3587 145.924 33.3587C145.515 33.3587 145.189 33.0402 145.189 32.6442C145.189 32.2521 145.516 31.9347 145.924 31.9347H145.928" fill="#A9A7C4"/>
</g>
<defs>
<clipPath id="clip0_195_438">
<rect width="135" height="32" fill="white" transform="translate(12 8)"/>
</clipPath>
</defs>
</svg>
